<?xml version="1.0" encoding="utf-8"?>
<!-- Generator: Adobe Illustrator 18.0.0, SVG Export Plug-In . SVG Version: 6.00 Build 0)  -->
<!DOCTYPE svg PUBLIC "-//W3C//DTD SVG 1.1 Tiny//EN" "http://www.w3.org/Graphics/SVG/1.1/DTD/svg11-tiny.dtd">
<svg version="1.1" baseProfile="tiny" id="Layer_1" xmlns="http://www.w3.org/2000/svg" xmlns:xlink="http://www.w3.org/1999/xlink"
	 x="0px" y="0px" viewBox="-2.5 -4.333 80 81.333" xml:space="preserve">
<circle fill="#FFFFFF" stroke="#004990" stroke-width="5.6827" cx="37.013" cy="37.012" r="34.171"/>
<image display="none" width="73" height="73" xlink:href="FB335A18.jpeg"  transform="matrix(1 0 0 1 0.5117 0.146)">
</image>
<g display="none">
	<image display="inline" width="67" height="69" xlink:href="FB335A12.png"  transform="matrix(1 0 0 1 1 1)">
	</image>
</g>
<g display="none">
	<path display="inline" fill="#124B8E" d="M23.322,25.469l-0.616-0.556c0.177-0.096,0.32-0.195,0.427-0.295
		c0.146-0.138,0.242-0.272,0.287-0.404s0.057-0.269,0.035-0.411c-0.016-0.105-0.093-0.333-0.229-0.684
		c-0.02-0.049-0.048-0.122-0.083-0.218l-4.888-2.55l0.708-0.667l2.782,1.515c0.355,0.19,0.712,0.404,1.071,0.646
		c-0.19-0.377-0.359-0.761-0.507-1.15l-1.159-3.071l0.657-0.619l1.993,5.384c0.216,0.58,0.352,0.993,0.405,1.238
		c0.074,0.33,0.08,0.617,0.018,0.862s-0.198,0.465-0.407,0.662C23.689,25.27,23.524,25.376,23.322,25.469z"/>
</g>
<g display="none">
	<path display="inline" fill="#124B8E" d="M30.319,16.692l0.969-0.144c0.088,0.821-0.038,1.528-0.376,2.122
		c-0.338,0.593-0.855,1.035-1.551,1.328c-0.721,0.304-1.361,0.401-1.922,0.292c-0.562-0.11-1.065-0.399-1.51-0.87
		c-0.444-0.469-0.786-1.031-1.026-1.683c-0.262-0.713-0.356-1.389-0.286-2.032c0.071-0.641,0.302-1.203,0.691-1.686
		c0.39-0.482,0.879-0.847,1.469-1.096c0.668-0.282,1.294-0.345,1.878-0.188c0.583,0.156,1.082,0.512,1.493,1.068l-0.793,0.577
		c-0.338-0.433-0.696-0.7-1.074-0.803c-0.378-0.102-0.791-0.06-1.237,0.128c-0.514,0.217-0.897,0.523-1.149,0.921
		c-0.252,0.397-0.371,0.836-0.355,1.32c0.017,0.483,0.107,0.95,0.273,1.401c0.214,0.581,0.483,1.054,0.808,1.418
		s0.702,0.579,1.13,0.647c0.428,0.067,0.846,0.015,1.253-0.157c0.495-0.209,0.86-0.532,1.097-0.969S30.409,17.318,30.319,16.692z"/>
</g>
<g display="none">
	<path display="inline" fill="#124B8E" d="M33.067,18.498l-0.114-7.386l0.944-0.045l0.046,3.033l3.709-0.179l-0.046-3.033
		l0.944-0.046l0.114,7.386l-0.945,0.046l-0.054-3.481l-3.709,0.179l0.054,3.481L33.067,18.498z"/>
</g>
<g display="none">
	<image display="inline" width="69" height="69" xlink:href="FB335A11.png"  transform="matrix(1 0 0 1 0 1)">
	</image>
	<image display="inline" width="69" height="69" xlink:href="FB335A14.png"  transform="matrix(1 0 0 1 0 1)">
	</image>
</g>
<g display="none">
	<path display="inline" fill="#124B8E" d="M53.24,27.137l5.347-3.611l-1.241-2.029l0.715-0.483l2.987,4.882l-0.715,0.483
		l-1.247-2.038l-5.348,3.611L53.24,27.137z"/>
</g>
<g>
	<path fill="#124B8E" d="M17.729,31.401l-6.228-3.527l0.702-1.24l5.244,1.024c0.488,0.096,0.851,0.171,1.09,0.224
		c-0.187-0.199-0.457-0.498-0.811-0.896l-3.489-3.944l0.628-1.109l6.228,3.527l-0.45,0.794l-5.212-2.951l4.187,4.761l-0.421,0.743
		l-6.321-1.201l5.301,3.002L17.729,31.401z"/>
</g>
<g>
	<path fill="#124B8E" d="M23.386,26.005l-0.613-0.56c0.179-0.086,0.322-0.176,0.431-0.27c0.147-0.128,0.245-0.255,0.29-0.38
		c0.047-0.126,0.061-0.258,0.04-0.395c-0.017-0.103-0.092-0.327-0.226-0.671c-0.02-0.047-0.047-0.118-0.08-0.213l-4.887-2.642
		l0.716-0.619l2.78,1.565c0.354,0.196,0.711,0.417,1.07,0.662c-0.188-0.371-0.354-0.747-0.5-1.129l-1.139-3.011l0.664-0.575
		l1.957,5.277c0.213,0.569,0.346,0.973,0.398,1.212c0.07,0.321,0.074,0.6,0.01,0.833c-0.064,0.234-0.203,0.442-0.414,0.625
		C23.756,25.827,23.591,25.924,23.386,26.005z"/>
</g>
<g>
	<path fill="#124B8E" d="M30.307,16.428l0.966-0.148c0.12,0.793,0.021,1.479-0.294,2.057c-0.316,0.577-0.818,1.01-1.504,1.3
		c-0.711,0.3-1.35,0.399-1.917,0.299c-0.567-0.102-1.083-0.378-1.548-0.828c-0.464-0.449-0.829-0.99-1.096-1.62
		c-0.289-0.686-0.412-1.34-0.365-1.962c0.046-0.622,0.255-1.168,0.627-1.638s0.849-0.828,1.43-1.073
		c0.66-0.279,1.285-0.346,1.878-0.2c0.591,0.146,1.104,0.485,1.538,1.019l-0.773,0.565c-0.355-0.415-0.725-0.67-1.108-0.766
		c-0.384-0.097-0.795-0.051-1.235,0.136c-0.508,0.214-0.879,0.514-1.117,0.901c-0.237,0.387-0.338,0.813-0.304,1.28
		c0.035,0.468,0.145,0.919,0.328,1.354c0.237,0.561,0.526,1.015,0.866,1.364s0.726,0.554,1.158,0.615
		c0.432,0.061,0.85,0.007,1.251-0.163c0.488-0.206,0.843-0.522,1.063-0.947C30.369,17.548,30.421,17.033,30.307,16.428z"/>
</g>
<g>
	<path fill="#124B8E" d="M33.211,18.242l-0.374-7.146l0.945-0.05l0.153,2.935l3.715-0.194l-0.153-2.935l0.946-0.049l0.373,7.146
		l-0.945,0.049l-0.176-3.369l-3.715,0.194l0.176,3.369L33.211,18.242z"/>
</g>
<g>
	<path fill="#124B8E" d="M39.523,17.738l4.781-5.992l0.973,0.309l0.631,7.707l-1.029-0.326l-0.141-2.318l-2.853-0.904l-1.403,1.829
		L39.523,17.738z M42.379,15.561l2.314,0.732l-0.113-2.115c-0.037-0.643-0.047-1.165-0.037-1.567
		c-0.225,0.41-0.484,0.806-0.779,1.187L42.379,15.561z"/>
</g>
<g>
	<path fill="#124B8E" d="M47.355,20.491l4.371-5.666l2.513,1.938c0.505,0.389,0.851,0.736,1.034,1.041
		c0.185,0.305,0.256,0.646,0.215,1.025c-0.043,0.378-0.184,0.723-0.424,1.035c-0.311,0.402-0.701,0.641-1.174,0.716
		c-0.475,0.075-1.01-0.06-1.612-0.405c0.126,0.248,0.203,0.459,0.234,0.631c0.064,0.371,0.077,0.782,0.041,1.234l-0.204,2.303
		l-0.943-0.728l0.16-1.758c0.043-0.509,0.063-0.908,0.061-1.198c-0.002-0.289-0.031-0.514-0.088-0.672s-0.133-0.297-0.227-0.414
		c-0.07-0.084-0.203-0.201-0.396-0.35l-0.869-0.671l-1.941,2.517L47.355,20.491z M50.549,17.904l1.611,1.243
		c0.342,0.265,0.638,0.436,0.885,0.515c0.248,0.077,0.482,0.076,0.703-0.001c0.221-0.079,0.402-0.21,0.543-0.393
		c0.207-0.268,0.279-0.563,0.218-0.886c-0.061-0.322-0.302-0.646-0.722-0.97l-1.793-1.384L50.549,17.904z"/>
</g>
<g>
	<path fill="#124B8E" d="M53.664,26.413l5.235-3.524l-1.317-1.956l0.701-0.472l3.168,4.705l-0.701,0.473l-1.322-1.965l-5.235,3.525
		L53.664,26.413z"/>
</g>
<g id="XMLID_2_">
	<g>
		<path fill="#124B8E" d="M53.759,35.798c0,0,0.635,0.024,0.382,0.483c-0.391,0.2-3.528,1.845-7.618,3.991l0.261-3.175
			C50.646,36.378,53.759,35.798,53.759,35.798z"/>
		<path fill="#FFFFFF" d="M54.136,35.673c0.045,0.017,0.083,0.039,0.114,0.066C54.219,35.712,54.181,35.691,54.136,35.673z"/>
		<path fill="#FFFFFF" d="M54.112,35.666c-0.012-0.005-0.025-0.009-0.039-0.012C54.087,35.657,54.1,35.662,54.112,35.666z"/>
		<path fill="#FFFFFF" d="M54.235,35.643c0.02,0.036,0.034,0.076,0.04,0.12c-0.008-0.009-0.016-0.017-0.025-0.023
			c-0.031-0.027-0.069-0.05-0.114-0.066c-0.007-0.003-0.015-0.006-0.024-0.008c-0.012-0.004-0.025-0.009-0.039-0.012
			c-0.116-0.028-0.259-0.027-0.434,0.003l-6.841,1.264l0.015-0.188l6.745-1.246c0.176-0.032,0.321-0.033,0.435-0.005
			S54.188,35.563,54.235,35.643z"/>
		<path fill="#124B8E" d="M46.784,37.098l-0.261,3.175c-8.719,4.575-21.768,11.429-21.768,11.429l5.213-10.448
			c0,0,0.813-1.21,2.258-1.458C33.103,39.644,40.834,38.207,46.784,37.098z"/>
		<path fill="#124B8E" d="M46.479,29.005c-0.029,0-0.055,0-0.083,0.003L34.143,30.58c-0.09,0.007-0.178,0.009-0.263,0.002
			c0.008,0,0.016,0,0.024-0.001c0.016-0.001,0.031-0.001,0.047-0.002c0.018-0.001,0.035-0.002,0.054-0.004l12.248-1.57
			c0.034-0.005,0.068-0.007,0.102-0.007C46.398,28.999,46.44,29.001,46.479,29.005z"/>
		<path fill="#124B8E" d="M33.952,30.58c0.018-0.001,0.036-0.003,0.054-0.004C33.987,30.578,33.97,30.579,33.952,30.58z"/>
		<path fill="#124B8E" d="M33.88,30.583c0.009-0.001,0.017-0.001,0.025-0.001C33.897,30.583,33.889,30.583,33.88,30.583
			L33.88,30.583z"/>
		<path fill="#FFFFFF" d="M31.603,27.754c-0.068-0.004-0.138-0.001-0.209,0.007C31.464,27.751,31.535,27.75,31.603,27.754z"/>
		<path fill="#124B8E" d="M32.226,39.795c-1.445,0.248-2.258,1.458-2.258,1.458l-5.213,10.448c0,0,13.049-6.854,21.768-11.429
			l-0.505,6.153c-0.018,0.198-0.065,0.398-0.139,0.585c-0.074,0.188-0.169,0.363-0.287,0.519c-0.116,0.156-0.249,0.294-0.396,0.399
			c-0.145,0.109-0.301,0.187-0.463,0.225L24.81,53.008c-0.204,0.049-0.397,0.052-0.572,0.012c-0.093-0.02-0.244,0.035-0.385,0.075
			c0.038-0.056,0.071-0.12,0.099-0.185c0.011-0.021,0.019-0.043,0.032-0.064c0.022-0.057,0.043-0.107,0.062-0.151h0.003
			c0.01-0.027,0.02-0.054,0.034-0.077c0.089-0.206,0.163-0.395,0.163-0.395l5.553-11.055l0.016-0.031
			c0.082-0.162,0.206-0.328,0.36-0.485c0.153-0.157,0.335-0.31,0.538-0.445c0.2-0.135,0.418-0.255,0.643-0.351
			c0.224-0.094,0.452-0.168,0.673-0.208l14.772-2.728l-0.015,0.178C40.834,38.207,33.103,39.644,32.226,39.795z"/>
		<path fill="#FFFFFF" d="M23.653,53.13c0.131-0.214,0.447-0.622,0.496-0.72l5.649-11.242l-5.553,11.055
			c0,0-0.074,0.188-0.163,0.395c-0.014,0.023-0.024,0.05-0.034,0.077h-0.003c-0.019,0.044-0.039,0.095-0.062,0.151
			c-0.013,0.021-0.021,0.044-0.032,0.064c-0.028,0.064-0.061,0.129-0.099,0.185C23.78,53.115,23.71,53.131,23.653,53.13z"/>
		<path fill="#124B8E" d="M25.145,53.001c-0.197,0.048-1.257,0.239-1.522,0.258c0.094-0.009,0.168-0.075,0.229-0.164
			c0.141-0.04,0.292-0.095,0.385-0.075c0.175,0.04,0.369,0.037,0.572-0.012l19.923-4.854c0.162-0.038,0.319-0.115,0.463-0.225
			c0.147-0.105,0.28-0.243,0.396-0.399c0.118-0.155,0.213-0.331,0.287-0.519c0.073-0.187,0.121-0.387,0.139-0.585l0.505-6.153
			c4.09-2.146,7.228-3.791,7.618-3.991c0.253-0.459-0.382-0.483-0.382-0.483s-3.112,0.58-6.975,1.3l0.015-0.178l6.841-1.264
			c0.175-0.03,0.318-0.031,0.434-0.003c0.014,0.003,0.026,0.007,0.039,0.012c0.009,0.002,0.017,0.005,0.024,0.008
			c0.045,0.018,0.083,0.039,0.114,0.066c0.009,0.007,0.017,0.015,0.025,0.023c0.015,0.016,0.027,0.033,0.038,0.052
			c0.048,0.076,0.061,0.178,0.033,0.294c-0.026,0.118-0.088,0.253-0.19,0.403l-6.287,9.166l-0.865,1.26
			c-0.085,0.124-0.199,0.25-0.333,0.37c-0.133,0.122-0.284,0.24-0.446,0.345s-0.334,0.203-0.508,0.281
			c-0.173,0.079-0.346,0.143-0.511,0.184L25.145,53.001z"/>
		<path fill="#FFFFFF" d="M23.602,53.26c0.007,0,0.014,0,0.021-0.001c-0.005,0.002-0.01,0.002-0.016,0.002
			C23.605,53.261,23.603,53.261,23.602,53.26z"/>
		<path fill="#FFFFFF" d="M23.601,53.26c-0.015-0.009,0.008-0.059,0.051-0.13c0,0,0,0.001,0,0c0.058,0.001,0.127-0.016,0.2-0.035
			c-0.062,0.089-0.136,0.155-0.229,0.164C23.616,53.26,23.609,53.26,23.601,53.26L23.601,53.26z"/>
		<path fill="#124B8E" d="M24.026,52.339l-0.157,0.363c0,0-0.006,0.012-0.014,0.033c-0.009,0.021-0.02,0.054-0.037,0.087
			c-0.051,0.107-0.136,0.249-0.21,0.219c-0.086-0.035-0.097-0.348-0.097-0.517c0-0.031,0-0.058,0-0.076
			c0-0.021,0.001-0.031,0.001-0.031l-0.009-0.419c0-0.085,0-0.155,0.001-0.242c0-0.001,0.001-0.005,0.001-0.006l0.476-18.082
			c0-0.028,0.001-0.054,0.003-0.082c0.002-0.026,0.006-0.052,0.008-0.079c0.003-0.026,0.007-0.053,0.009-0.078
			c0.004-0.028,0.008-0.055,0.013-0.081l0.078-2.948c0.007-0.25,0.058-0.492,0.143-0.721c0.086-0.227,0.206-0.436,0.354-0.617
			c0.149-0.183,0.32-0.33,0.512-0.443c0.189-0.113,0.398-0.186,0.615-0.209l5.814-0.644c0.039-0.005,0.076-0.006,0.111-0.008
			c-0.01-0.001-0.02-0.002-0.03-0.003c0.118,0.007,0.23,0.031,0.335,0.072c0.168,0.062,0.314,0.161,0.434,0.284
			c0.123,0.124,0.217,0.271,0.277,0.429c0.064,0.159,0.094,0.33,0.088,0.5l-0.016,0.272c-0.009,0.231,0.017,0.431,0.077,0.597
			s0.15,0.301,0.269,0.405c0.114,0.104,0.253,0.177,0.409,0.223c0.124,0.033,0.254,0.048,0.394,0.045h0.001
			c0.085,0.007,0.173,0.005,0.263-0.002l12.253-1.572c0.028-0.003,0.054-0.003,0.083-0.003c-0.04-0.004-0.081-0.007-0.124-0.007
			c0.129-0.004,0.25,0.021,0.36,0.07c0.138,0.062,0.259,0.162,0.358,0.29c0.096,0.128,0.168,0.286,0.216,0.468
			c0.045,0.178,0.06,0.382,0.042,0.598l-0.518,6.308l-14.867,2.744c-0.22,0.039-0.448,0.113-0.674,0.209
			c-0.223,0.095-0.44,0.214-0.641,0.351c-0.203,0.134-0.386,0.286-0.54,0.442c-0.153,0.159-0.275,0.324-0.358,0.484L24.1,52.18
			l-0.003-0.002l-0.019,0.043l-0.008,0.017C24.051,52.274,24.038,52.305,24.026,52.339z"/>
		<path fill="#FFFFFF" d="M30.173,40.652c-0.154,0.157-0.278,0.323-0.36,0.485l-0.016,0.031L24.148,52.41
			c-0.049,0.098-0.365,0.506-0.496,0.72c0,0.001,0,0,0,0c-0.042,0.001-0.077-0.008-0.102-0.03c-0.098-0.088-0.055-0.366-0.058-0.575
			h0.019c0,0.169,0.011,0.481,0.097,0.517c0.074,0.03,0.159-0.111,0.21-0.219c0.017-0.033,0.028-0.065,0.037-0.087
			c0.008-0.021,0.014-0.033,0.014-0.033l0.157-0.363c0.012-0.034,0.025-0.065,0.044-0.102l0.008-0.017l0.019-0.043L24.1,52.18
			l5.635-11.218c0.083-0.16,0.206-0.325,0.358-0.484c0.154-0.156,0.336-0.309,0.54-0.442c0.2-0.137,0.417-0.256,0.641-0.351
			c0.226-0.096,0.454-0.17,0.674-0.209l14.867-2.744L46.8,36.92l-14.772,2.728c-0.221,0.04-0.449,0.114-0.673,0.208
			c-0.224,0.096-0.442,0.216-0.643,0.351C30.509,40.342,30.326,40.495,30.173,40.652z"/>
		<path fill="#FFFFFF" d="M23.652,53.13c-0.043,0.071-0.066,0.121-0.051,0.13c-0.013,0.001-0.026,0-0.039-0.002
			c-0.232-0.031-0.228-0.538-0.228-0.538l0.03-0.965c-0.005,0.221,0.032,0.422,0.102,0.595c0.019,0.044,0.024,0.106,0.025,0.175
			c0.003,0.209-0.04,0.487,0.058,0.575C23.576,53.123,23.61,53.131,23.652,53.13z"/>
		<path fill="#FFFFFF" d="M24.449,29.057c0.148-0.182,0.32-0.332,0.512-0.445c0.191-0.111,0.397-0.185,0.612-0.208l5.82-0.643
			c0.072-0.008,0.142-0.011,0.209-0.007c0.004,0,0.007,0,0.011,0.001c0.01,0.001,0.02,0.002,0.03,0.003
			c-0.035,0.002-0.073,0.003-0.111,0.008l-5.814,0.644c-0.217,0.023-0.426,0.096-0.615,0.209c-0.192,0.113-0.363,0.261-0.512,0.443
			c-0.148,0.182-0.268,0.391-0.354,0.617c-0.085,0.229-0.136,0.471-0.143,0.721l-0.078,2.948c-0.004,0.026-0.008,0.053-0.013,0.081
			c-0.002,0.025-0.006,0.052-0.009,0.078c-0.002,0.027-0.006,0.053-0.008,0.079c-0.001,0.028-0.002,0.054-0.003,0.082L23.506,51.75
			c0,0.001-0.001,0.005-0.001,0.006c-0.001,0.087-0.001,0.157-0.001,0.242l0.009,0.419c0,0-0.001,0.011-0.001,0.031
			c0,0.019-0.001,0.045,0,0.076h-0.019c-0.001-0.068-0.007-0.131-0.025-0.175c-0.07-0.173-0.107-0.374-0.102-0.595
			c0-0.003,0-0.007,0-0.01l0.476-18.082c0.001-0.027,0.003-0.054,0.005-0.082c0-0.026,0.002-0.053,0.006-0.079
			c0.001-0.026,0.008-0.053,0.01-0.079c0.002-0.026,0.009-0.053,0.015-0.079l0.076-2.949c0.007-0.249,0.058-0.493,0.142-0.72
			C24.183,29.449,24.304,29.241,24.449,29.057z"/>
	</g>
</g>
</svg>
