<?xml version="1.0" encoding="utf-8"?>
<!-- Generator: Adobe Illustrator 17.1.0, SVG Export Plug-In . SVG Version: 6.00 Build 0)  -->
<!DOCTYPE svg PUBLIC "-//W3C//DTD SVG 1.1//EN" "http://www.w3.org/Graphics/SVG/1.1/DTD/svg11.dtd">
<svg version="1.1" id="Layer_1" xmlns="http://www.w3.org/2000/svg" xmlns:xlink="http://www.w3.org/1999/xlink" x="0px" y="0px"
	 viewBox="0 0 75 74" enable-background="new 0 0 75 74" xml:space="preserve">
<circle fill="#FFFFFF" stroke="#004990" stroke-width="5.6827" cx="37.01" cy="37.01" r="34.17"/>
<image display="none" overflow="visible" enable-background="new    " width="73" height="73" xlink:href="2D197F83AB7C3B93.jpeg"  transform="matrix(1 0 0 1 0.5117 0.146)">
</image>
<g display="none">
	<g display="inline">
		<defs>
			
				<rect id="SVGID_1_" x="7.88" y="9.76" transform="matrix(0.3505 -0.9366 0.9366 0.3505 -10.5575 55.3797)" width="53.54" height="51.09"/>
		</defs>
		<clipPath id="SVGID_2_">
			<use xlink:href="#SVGID_1_"  overflow="visible"/>
		</clipPath>
		<g clip-path="url(#SVGID_2_)">
			
				<text transform="matrix(0.5468 -0.8903 0.8435 0.5371 17.7338 31.7704)" fill="#124B8E" font-family="'ArialMT'" font-size="9.9277">M</text>
		</g>
	</g>
</g>
<text transform="matrix(0.7454 -0.702 0.6557 0.7551 21.5437 24.3927)" display="none" fill="#124B8E" enable-background="new    " font-family="'ArialMT'" font-size="10.0325">y</text>
<text transform="matrix(0.9174 -0.3866 0.345 0.9386 25.7128 21.4018)" display="none" fill="#124B8E" enable-background="new    " font-family="'ArialMT'" font-size="10.1754">C</text>
<text transform="matrix(0.9661 -0.0467 0.0154 0.9999 32.2686 18.5369)" display="none" fill="#124B8E" enable-background="new    " font-family="'ArialMT'" font-size="10.3201">H</text>
<g display="none">
	<g display="inline">
		<defs>
			
				<rect id="SVGID_3_" x="7.87" y="9.92" transform="matrix(0.373 -0.9278 0.9278 0.373 -11.1869 54.3746)" width="53.54" height="51.09"/>
		</defs>
		<clipPath id="SVGID_4_">
			<use xlink:href="#SVGID_3_"  overflow="visible"/>
		</clipPath>
		<g clip-path="url(#SVGID_4_)">
			
				<text transform="matrix(0.8964 0.3275 -0.3458 0.9383 39.873 18.3856)" fill="#124B8E" font-family="'ArialMT'" font-size="10.3868">A</text>
		</g>
	</g>
	<g display="inline">
		<defs>
			
				<rect id="SVGID_5_" x="7.87" y="9.92" transform="matrix(0.373 -0.9278 0.9278 0.373 -11.1869 54.3746)" width="53.54" height="51.09"/>
		</defs>
		<clipPath id="SVGID_6_">
			<use xlink:href="#SVGID_5_"  overflow="visible"/>
		</clipPath>
		<g clip-path="url(#SVGID_6_)">
			
				<text transform="matrix(0.7266 0.6323 -0.6352 0.7724 46.9047 20.9372)" fill="#124B8E" font-family="'ArialMT'" font-size="10.3417">R</text>
		</g>
	</g>
</g>
<text transform="matrix(0.5151 0.8417 -0.8287 0.5597 51.8751 24.9063)" display="none" fill="#124B8E" enable-background="new    " font-family="'ArialMT'" font-size="10.22">T</text>
<g enable-background="new    ">
	<path fill="#124B8E" d="M11.86,27.19l0.66-1.16l5.18,1.02l-3.53-3.93l0.66-1.16l6.84,2.49l-0.65,1.15l-4.33-1.57l3.19,3.56
		l-0.59,1.05l-4.69-0.92l3.56,2.92l-0.66,1.16L11.86,27.19z"/>
</g>
<g enable-background="new    ">
	<path fill="#124B8E" d="M18.2,20.83l1.03-0.89l3.22,1.62l-1.03-3.52l1.03-0.89l2.23,7.66l-1.04,0.9l-0.7-2.48L18.2,20.83z"/>
</g>
<g enable-background="new    ">
	<path fill="#124B8E" d="M30.4,12.69l-0.53,1.21c-0.87-0.38-1.67-0.41-2.42-0.09c-0.63,0.27-1.07,0.71-1.32,1.32
		c-0.25,0.62-0.24,1.24,0.03,1.87c0.19,0.44,0.45,0.79,0.78,1.05c0.34,0.26,0.72,0.42,1.15,0.46c0.43,0.05,0.86-0.02,1.29-0.2
		c0.37-0.16,0.67-0.36,0.92-0.63c0.24-0.26,0.47-0.65,0.68-1.17l1.23,0.53c-0.29,0.68-0.61,1.21-0.97,1.58
		c-0.36,0.37-0.81,0.67-1.37,0.91c-1.03,0.43-2.01,0.46-2.94,0.09c-0.93-0.38-1.61-1.07-2.04-2.09c-0.28-0.66-0.38-1.31-0.3-1.95
		c0.08-0.64,0.33-1.23,0.76-1.78c0.42-0.55,0.96-0.96,1.6-1.23c0.55-0.23,1.12-0.34,1.72-0.32S29.85,12.42,30.4,12.69z"/>
</g>
<g enable-background="new    ">
	<path fill="#124B8E" d="M32.85,11.07L34.23,11l0.14,2.71l2.39-0.12l-0.14-2.71l1.38-0.07l0.38,7.17L37,18.04l-0.16-3.14l-2.39,0.12
		l0.16,3.14l-1.38,0.07L32.85,11.07z"/>
</g>
<g enable-background="new    ">
	<path fill="#124B8E" d="M44.58,11.81l1.32,0.42l0.46,7.68l-1.35-0.43l-0.09-1.58l-2.79-0.89l-1,1.23l-1.35-0.43L44.58,11.81z
		 M44.67,13.83l-1.66,2.06l1.83,0.58L44.67,13.83z"/>
</g>
<g enable-background="new    ">
	<path fill="#124B8E" d="M51.84,14.88l1.15,0.88c0.63,0.48,1.03,0.88,1.21,1.2c0.18,0.32,0.25,0.67,0.21,1.05
		c-0.04,0.38-0.19,0.76-0.47,1.11c-0.29,0.37-0.62,0.62-0.99,0.73c-0.37,0.11-0.79,0.09-1.25-0.05l-0.6,3.57l-1.18-0.91l0.58-3.39
		L50.4,19l-1.86,2.41l-1.08-0.84L51.84,14.88z M51.21,17.94l0.34,0.26c0.34,0.27,0.62,0.4,0.82,0.41s0.38-0.09,0.54-0.3
		c0.1-0.12,0.15-0.26,0.15-0.4c0.01-0.14-0.03-0.27-0.11-0.4c-0.08-0.12-0.26-0.29-0.55-0.52l-0.3-0.23L51.21,17.94z"/>
</g>
<g enable-background="new    ">
	<path fill="#124B8E" d="M58.24,20.35l2.22,3.29l-1.12,0.75L58.6,23.3l-4.84,3.26l-0.77-1.15l4.84-3.26l-0.71-1.06L58.24,20.35z"/>
</g>
<g id="XMLID_2_">
	<g>
		<path fill="#124B8E" d="M53.76,35.8c0,0,0.63,0.02,0.38,0.48c-0.39,0.2-3.53,1.85-7.62,3.99l0.26-3.17
			C50.65,36.38,53.76,35.8,53.76,35.8z"/>
		<path fill="#FFFFFF" d="M54.14,35.67c0.04,0.02,0.08,0.04,0.11,0.07C54.22,35.71,54.18,35.69,54.14,35.67z"/>
		<path fill="#FFFFFF" d="M54.11,35.67c-0.01-0.01-0.03-0.01-0.04-0.01C54.09,35.66,54.1,35.66,54.11,35.67z"/>
		<path fill="#FFFFFF" d="M54.24,35.64c0.02,0.04,0.03,0.08,0.04,0.12c-0.01-0.01-0.02-0.02-0.03-0.02
			c-0.03-0.03-0.07-0.05-0.11-0.07c-0.01,0-0.01-0.01-0.02-0.01c-0.01,0-0.03-0.01-0.04-0.01c-0.12-0.03-0.26-0.03-0.43,0
			l-6.84,1.26l0.01-0.19l6.74-1.25c0.18-0.03,0.32-0.03,0.44-0.01S54.19,35.56,54.24,35.64z"/>
		<path fill="#124B8E" d="M46.78,37.1l-0.26,3.17C37.8,44.85,24.75,51.7,24.75,51.7l5.21-10.45c0,0,0.81-1.21,2.26-1.46
			C33.1,39.64,40.83,38.21,46.78,37.1z"/>
		<path fill="#124B8E" d="M46.48,29c-0.03,0-0.06,0-0.08,0l-12.25,1.57c-0.09,0.01-0.18,0.01-0.26,0c0.01,0,0.02,0,0.02,0
			c0.02,0,0.03,0,0.05,0c0.02,0,0.03,0,0.05,0L46.25,29c0.03,0,0.07-0.01,0.1-0.01C46.4,29,46.44,29,46.48,29z"/>
		<path fill="#124B8E" d="M33.95,30.58c0.02,0,0.04,0,0.05,0C33.99,30.58,33.97,30.58,33.95,30.58z"/>
		<path fill="#124B8E" d="M33.88,30.58c0.01,0,0.02,0,0.03,0C33.9,30.58,33.89,30.58,33.88,30.58L33.88,30.58z"/>
		<path fill="#FFFFFF" d="M31.6,27.75c-0.07,0-0.14,0-0.21,0.01C31.46,27.75,31.53,27.75,31.6,27.75z"/>
		<path fill="#124B8E" d="M32.23,39.79c-1.44,0.25-2.26,1.46-2.26,1.46L24.76,51.7c0,0,13.05-6.85,21.77-11.43l-0.51,6.15
			c-0.02,0.2-0.06,0.4-0.14,0.58c-0.07,0.19-0.17,0.36-0.29,0.52c-0.12,0.16-0.25,0.29-0.4,0.4c-0.15,0.11-0.3,0.19-0.46,0.22
			l-19.92,4.86c-0.2,0.05-0.4,0.05-0.57,0.01c-0.09-0.02-0.24,0.03-0.39,0.08c0.04-0.06,0.07-0.12,0.1-0.19
			c0.01-0.02,0.02-0.04,0.03-0.06c0.02-0.06,0.04-0.11,0.06-0.15h0c0.01-0.03,0.02-0.05,0.03-0.08c0.09-0.21,0.16-0.4,0.16-0.4
			l5.55-11.06l0.02-0.03c0.08-0.16,0.21-0.33,0.36-0.49c0.15-0.16,0.33-0.31,0.54-0.44c0.2-0.13,0.42-0.26,0.64-0.35
			c0.22-0.09,0.45-0.17,0.67-0.21l14.77-2.73l-0.01,0.18C40.83,38.21,33.1,39.64,32.23,39.79z"/>
		<path fill="#FFFFFF" d="M23.65,53.13c0.13-0.21,0.45-0.62,0.5-0.72l5.65-11.24l-5.55,11.06c0,0-0.07,0.19-0.16,0.4
			c-0.01,0.02-0.02,0.05-0.03,0.08h0c-0.02,0.04-0.04,0.1-0.06,0.15c-0.01,0.02-0.02,0.04-0.03,0.06c-0.03,0.06-0.06,0.13-0.1,0.19
			C23.78,53.11,23.71,53.13,23.65,53.13z"/>
		<path fill="#124B8E" d="M25.15,53c-0.2,0.05-1.26,0.24-1.52,0.26c0.09-0.01,0.17-0.08,0.23-0.16c0.14-0.04,0.29-0.1,0.39-0.08
			c0.17,0.04,0.37,0.04,0.57-0.01l19.92-4.85c0.16-0.04,0.32-0.12,0.46-0.22c0.15-0.1,0.28-0.24,0.4-0.4
			c0.12-0.15,0.21-0.33,0.29-0.52c0.07-0.19,0.12-0.39,0.14-0.58l0.51-6.15c4.09-2.15,7.23-3.79,7.62-3.99
			c0.25-0.46-0.38-0.48-0.38-0.48s-3.11,0.58-6.97,1.3l0.01-0.18l6.84-1.26c0.17-0.03,0.32-0.03,0.43,0c0.01,0,0.03,0.01,0.04,0.01
			c0.01,0,0.02,0.01,0.02,0.01c0.04,0.02,0.08,0.04,0.11,0.07c0.01,0.01,0.02,0.01,0.03,0.02c0.01,0.02,0.03,0.03,0.04,0.05
			c0.05,0.08,0.06,0.18,0.03,0.29c-0.03,0.12-0.09,0.25-0.19,0.4l-6.29,9.17L47,46.94c-0.08,0.12-0.2,0.25-0.33,0.37
			c-0.13,0.12-0.28,0.24-0.45,0.35s-0.33,0.2-0.51,0.28c-0.17,0.08-0.35,0.14-0.51,0.18L25.15,53z"/>
		<path fill="#FFFFFF" d="M23.6,53.26c0.01,0,0.01,0,0.02,0C23.62,53.26,23.61,53.26,23.6,53.26C23.6,53.26,23.6,53.26,23.6,53.26z"
			/>
		<path fill="#FFFFFF" d="M23.6,53.26c-0.01-0.01,0.01-0.06,0.05-0.13c0,0,0,0,0,0c0.06,0,0.13-0.02,0.2-0.03
			c-0.06,0.09-0.14,0.15-0.23,0.16C23.62,53.26,23.61,53.26,23.6,53.26L23.6,53.26z"/>
		<path fill="#124B8E" d="M24.03,52.34l-0.16,0.36c0,0-0.01,0.01-0.01,0.03c-0.01,0.02-0.02,0.05-0.04,0.09
			c-0.05,0.11-0.14,0.25-0.21,0.22c-0.09-0.03-0.1-0.35-0.1-0.52c0-0.03,0-0.06,0-0.08c0-0.02,0-0.03,0-0.03L23.5,52
			c0-0.08,0-0.15,0-0.24c0,0,0-0.01,0-0.01l0.48-18.08c0-0.03,0-0.05,0-0.08c0-0.03,0.01-0.05,0.01-0.08c0-0.03,0.01-0.05,0.01-0.08
			c0-0.03,0.01-0.06,0.01-0.08l0.08-2.95c0.01-0.25,0.06-0.49,0.14-0.72c0.09-0.23,0.21-0.44,0.35-0.62
			c0.15-0.18,0.32-0.33,0.51-0.44c0.19-0.11,0.4-0.19,0.61-0.21l5.81-0.64c0.04,0,0.08-0.01,0.11-0.01c-0.01,0-0.02,0-0.03,0
			c0.12,0.01,0.23,0.03,0.33,0.07c0.17,0.06,0.31,0.16,0.43,0.28c0.12,0.12,0.22,0.27,0.28,0.43c0.06,0.16,0.09,0.33,0.09,0.5
			l-0.02,0.27c-0.01,0.23,0.02,0.43,0.08,0.6s0.15,0.3,0.27,0.41c0.11,0.1,0.25,0.18,0.41,0.22c0.12,0.03,0.25,0.05,0.39,0.05h0
			c0.08,0.01,0.17,0,0.26,0l12.25-1.57c0.03,0,0.05,0,0.08,0C46.44,29,46.4,29,46.35,29c0.13,0,0.25,0.02,0.36,0.07
			c0.14,0.06,0.26,0.16,0.36,0.29c0.1,0.13,0.17,0.29,0.22,0.47c0.04,0.18,0.06,0.38,0.04,0.6l-0.52,6.31l-14.87,2.74
			c-0.22,0.04-0.45,0.11-0.67,0.21c-0.22,0.1-0.44,0.21-0.64,0.35c-0.2,0.13-0.39,0.29-0.54,0.44c-0.15,0.16-0.27,0.32-0.36,0.48
			L24.1,52.18l0,0l-0.02,0.04l-0.01,0.02C24.05,52.27,24.04,52.3,24.03,52.34z"/>
		<path fill="#FFFFFF" d="M30.17,40.65c-0.15,0.16-0.28,0.32-0.36,0.49l-0.02,0.03l-5.65,11.24c-0.05,0.1-0.36,0.51-0.5,0.72
			c0,0,0,0,0,0c-0.04,0-0.08-0.01-0.1-0.03c-0.1-0.09-0.06-0.37-0.06-0.58h0.02c0,0.17,0.01,0.48,0.1,0.52
			c0.07,0.03,0.16-0.11,0.21-0.22c0.02-0.03,0.03-0.06,0.04-0.09c0.01-0.02,0.01-0.03,0.01-0.03l0.16-0.36
			c0.01-0.03,0.02-0.06,0.04-0.1l0.01-0.02l0.02-0.04l0,0l5.64-11.22c0.08-0.16,0.21-0.33,0.36-0.48c0.15-0.16,0.34-0.31,0.54-0.44
			c0.2-0.14,0.42-0.26,0.64-0.35c0.23-0.1,0.45-0.17,0.67-0.21l14.87-2.74l-0.01,0.19l-14.77,2.73c-0.22,0.04-0.45,0.11-0.67,0.21
			c-0.22,0.1-0.44,0.22-0.64,0.35C30.51,40.34,30.33,40.49,30.17,40.65z"/>
		<path fill="#FFFFFF" d="M23.65,53.13c-0.04,0.07-0.07,0.12-0.05,0.13c-0.01,0-0.03,0-0.04,0c-0.23-0.03-0.23-0.54-0.23-0.54
			l0.03-0.97c0,0.22,0.03,0.42,0.1,0.6c0.02,0.04,0.02,0.11,0.02,0.17c0,0.21-0.04,0.49,0.06,0.58
			C23.58,53.12,23.61,53.13,23.65,53.13z"/>
		<path fill="#FFFFFF" d="M24.45,29.06c0.15-0.18,0.32-0.33,0.51-0.44c0.19-0.11,0.4-0.18,0.61-0.21l5.82-0.64
			c0.07-0.01,0.14-0.01,0.21-0.01c0,0,0.01,0,0.01,0c0.01,0,0.02,0,0.03,0c-0.03,0-0.07,0-0.11,0.01l-5.81,0.64
			c-0.22,0.02-0.43,0.1-0.61,0.21c-0.19,0.11-0.36,0.26-0.51,0.44c-0.15,0.18-0.27,0.39-0.35,0.62c-0.08,0.23-0.14,0.47-0.14,0.72
			l-0.08,2.95c0,0.03-0.01,0.05-0.01,0.08c0,0.03-0.01,0.05-0.01,0.08c0,0.03-0.01,0.05-0.01,0.08c0,0.03,0,0.05,0,0.08l-0.48,18.08
			c0,0,0,0.01,0,0.01c0,0.09,0,0.16,0,0.24l0.01,0.42c0,0,0,0.01,0,0.03c0,0.02,0,0.04,0,0.08h-0.02c0-0.07-0.01-0.13-0.02-0.17
			c-0.07-0.17-0.11-0.37-0.1-0.6c0,0,0-0.01,0-0.01l0.48-18.08c0-0.03,0-0.05,0-0.08c0-0.03,0-0.05,0.01-0.08
			c0-0.03,0.01-0.05,0.01-0.08c0-0.03,0.01-0.05,0.01-0.08l0.08-2.95c0.01-0.25,0.06-0.49,0.14-0.72
			C24.18,29.45,24.3,29.24,24.45,29.06z"/>
	</g>
</g>
</svg>
