<?xml version="1.0" encoding="utf-8"?>
<!-- Generator: Adobe Illustrator 18.0.0, SVG Export Plug-In . SVG Version: 6.00 Build 0)  -->
<!DOCTYPE svg PUBLIC "-//W3C//DTD SVG 1.1//EN" "http://www.w3.org/Graphics/SVG/1.1/DTD/svg11.dtd">
<svg version="1.1" id="Layer_1" xmlns="http://www.w3.org/2000/svg" xmlns:xlink="http://www.w3.org/1999/xlink" x="0px" y="0px"
	 viewBox="261.667 380.667 48.333 54.667" enable-background="new 261.667 380.667 48.333 54.667" xml:space="preserve">
<g id="Background">
	<g>
		<path fill="#BF0000" d="M-1.611,160.192v48.584"/>
	</g>
</g>
<g id="Pages_1">
	<path fill="#00498F" d="M305.597,400.16L290.7,385.397c-0.268-0.268-0.671-0.403-1.074-0.403H272.85
		c-3.624,0-5.905,2.282-5.905,5.905v35.297c0,3.624,2.282,5.905,5.905,5.905h27.245l0,0l0,0c3.624,0,5.905-2.147,5.905-5.771
		v-24.963C306,400.832,305.866,400.429,305.597,400.16z M290.7,389.692l10.334,10.334h-7.516c-2.013,0-2.818-0.939-2.818-2.818
		L290.7,389.692L290.7,389.692z M303.047,426.197c0,2.013-0.939,2.684-2.818,2.684h-27.245c-2.013,0-2.818-0.939-2.818-2.818
		v-35.297c0-2.013,0.939-2.818,2.818-2.818h14.897v9.126c0,3.624,2.282,5.905,5.905,5.905h9.395v23.218H303.047z M297.142,420.024
		h-21.608c-0.671,0-1.208,0.537-1.208,1.208s0.537,1.208,1.208,1.208h21.608c0.671,0,1.208-0.537,1.208-1.208
		C298.35,420.561,297.813,420.024,297.142,420.024z M297.142,408.75H275.4c-0.671,0-1.208,0.537-1.208,1.208
		s0.537,1.208,1.208,1.208h21.742c0.671,0,1.208-0.537,1.208-1.208C298.35,409.287,297.813,408.75,297.142,408.75z M275.534,401.771
		h6.979c0.671,0,1.208-0.537,1.208-1.208s-0.537-1.208-1.208-1.208h-6.979c-0.671,0-1.208,0.537-1.208,1.208
		C274.326,401.368,274.863,401.771,275.534,401.771z M275.534,396.537h6.979c0.671,0,1.208-0.537,1.208-1.208
		c0-0.671-0.537-1.208-1.208-1.208h-6.979c-0.671,0-1.208,0.537-1.208,1.208C274.326,396,274.863,396.537,275.534,396.537z
		 M297.142,414.387H275.4c-0.671,0-1.208,0.537-1.208,1.208c0,0.671,0.537,1.208,1.208,1.208h21.742
		c0.671,0,1.208-0.537,1.208-1.208C298.35,414.924,297.813,414.387,297.142,414.387z"/>
</g>
</svg>
