<?xml version="1.0" encoding="utf-8"?>
<!-- Generator: Adobe Illustrator 17.1.0, SVG Export Plug-In . SVG Version: 6.00 Build 0)  -->
<!DOCTYPE svg PUBLIC "-//W3C//DTD SVG 1.1//EN" "http://www.w3.org/Graphics/SVG/1.1/DTD/svg11.dtd">
<svg version="1.1" id="Layer_1" xmlns="http://www.w3.org/2000/svg" xmlns:xlink="http://www.w3.org/1999/xlink" x="0px" y="0px"
	 width="219.333px" height="112.667px" viewBox="0 0 219.333 112.667" enable-background="new 0 0 219.333 112.667"
	 xml:space="preserve">
<g>
	<g>
		<path fill="#CACD19" d="M73.972,100.337c-0.273,0.272-0.595,0.385-1.043,0.385c-0.192,0-0.738-0.031-0.738-0.45
			c0.08-0.464,1.075-8.44,1.075-10.013c0-0.529-0.225-0.883-0.835-0.996c-0.032-0.016-0.048-0.081-0.048-0.144
			c0-0.13,0.033-0.258,0.112-0.258c0.208,0,0.964,0.098,2.183,0.098c1.076,0,2.086-0.033,2.648-0.033
			c0.048,0,0.096,0.112,0.096,0.239c0,0.082-0.032,0.177-0.111,0.177c-0.996,0.018-1.221,0.225-1.397,0.771
			c-0.128,0.402-0.273,2.297-0.433,3.739c-0.177,1.573-0.385,3.034-0.513,3.676c0.336-0.337,1.444-1.988,2.503-3.546
			c1.237-1.831,2.392-3.757,2.648-4.415c0.128-0.319,0.626-0.463,1.076-0.463c0.418,0,0.803,0.127,0.803,0.399
			c-0.177,1.189-0.354,2.906-0.514,4.349c-0.176,1.573-0.353,3.034-0.481,3.676c0.337-0.352,1.444-1.988,2.504-3.546
			c1.236-1.831,2.327-3.354,2.327-3.964c0-0.402-0.273-0.627-0.643-0.676c-0.08-0.014-0.113-0.095-0.113-0.177
			c0-0.143,0.049-0.27,0.081-0.27c0.337,0,1.027,0.095,1.862,0.095c0.578,0,1.428-0.08,1.525-0.08c0.08,0,0.128,0.129,0.128,0.256
			c0,0.098-0.032,0.194-0.112,0.211c-0.609,0.159-1.059,0.368-1.749,1.251c-0.385,0.497-6.708,9.55-6.965,9.806
			c-0.273,0.272-0.433,0.289-0.883,0.289c-0.192,0-0.69-0.177-0.69-0.609c0.049-0.321,0.53-4.784,0.883-7.287
			C77.214,95.618,74.148,100.159,73.972,100.337z"/>
		<path fill="#CACD19" d="M87.262,98.54c0,0.72,0.273,1.139,0.835,1.139c0.803,0,1.766-0.771,2.167-1.782
			c0.016-0.046,0.08-0.079,0.161-0.079c0.08,0,0.225,0.064,0.177,0.209c-0.45,1.251-1.637,2.664-3.371,2.664
			c-1.171,0-2.038-0.562-2.038-2.071c0-2.295,2.327-5.633,5.136-5.633c0.834,0,1.204,0.578,1.204,1.204
			c0,0.947-0.979,2.166-3.98,2.84C87.407,97.449,87.262,98.059,87.262,98.54z M90.2,94.078c0-0.29-0.161-0.468-0.402-0.468
			c-0.786,0-1.637,1.479-2.167,3.068C89.638,95.747,90.2,94.704,90.2,94.078z"/>
		<path fill="#CACD19" d="M94.855,99.311c0-0.481,0.273-0.756,0.658-0.756c0.273,0,0.544,0.193,0.578,0.674
			c0.048,0.515,0.336,0.853,0.722,0.853c0.546,0,0.786-0.241,0.786-0.917c0-1.043-1.187-2.407-1.187-3.914
			c0-1.525,1.155-2.264,2.359-2.264c1.076,0,1.701,0.465,1.701,1.396c0,0.401-0.322,0.659-0.643,0.659
			c-0.305,0-0.593-0.21-0.625-0.722c-0.032-0.386-0.208-0.675-0.514-0.675c-0.433,0-0.625,0.289-0.625,0.753
			c0,0.948,1.364,2.6,1.364,3.932c0,1.333-0.931,2.345-2.648,2.345C95.657,100.674,94.855,100.145,94.855,99.311z"/>
		<path fill="#CACD19" d="M107.389,92.986c1.284,0,1.879,0.931,1.879,2.166c0,2.279-1.958,5.538-4.639,5.538
			c-0.738,0-1.075-0.272-1.268-0.756c-0.497,2.056-0.931,3.773-0.931,4.397c0,0.321,0.225,0.483,0.915,0.546
			c0.031,0,0.063,0.112,0.063,0.209c0,0.112-0.032,0.225-0.063,0.225c-0.337,0-1.477-0.063-2.376-0.063
			c-0.834,0-1.557,0.031-1.909,0.031c-0.048,0-0.064-0.081-0.064-0.177c0-0.079,0.016-0.177,0.064-0.177
			c0.802-0.112,1.011-0.288,1.284-0.994c0.145-0.402,2.568-8.828,2.568-9.245c-0.402,0.835-1.221,1.06-1.814,2.407
			c-0.016,0.031-0.048,0.048-0.064,0.048c-0.08,0-0.257-0.112-0.257-0.369c0.449-1.332,2.344-2.215,2.824-3.948
			c0.161-0.593,0.225-1.012,0.225-1.349c0-0.416,0.69-0.672,1.236-0.672c0.354,0,0.658,0.095,0.658,0.352
			c0,0.675-1.188,3.868-1.269,4.158C105.272,93.805,106.315,92.986,107.389,92.986z M107.213,94.88c0-0.609-0.177-1.028-0.61-1.028
			c-0.561,0-1.331,0.658-2.039,2.394c-0.208,0.512-0.771,1.988-0.771,3.112c0,0.482,0.161,0.771,0.594,0.771
			C105.705,100.128,107.213,96.679,107.213,94.88z"/>
		<path fill="#CACD19" d="M111.853,98.54c0,0.72,0.273,1.139,0.834,1.139c0.803,0,1.766-0.771,2.166-1.782
			c0.017-0.046,0.08-0.079,0.161-0.079c0.08,0,0.225,0.064,0.177,0.209c-0.45,1.251-1.637,2.664-3.371,2.664
			c-1.172,0-2.038-0.562-2.038-2.071c0-2.295,2.327-5.633,5.136-5.633c0.834,0,1.204,0.578,1.204,1.204
			c0,0.947-0.979,2.166-3.98,2.84C111.997,97.449,111.853,98.059,111.853,98.54z M114.79,94.078c0-0.29-0.161-0.468-0.402-0.468
			c-0.786,0-1.637,1.479-2.167,3.068C114.228,95.747,114.79,94.704,114.79,94.078z"/>
		<path fill="#CACD19" d="M121.242,92.986c1.028,0,1.429,0.578,1.429,1.204c0,0.401-0.257,0.914-0.738,0.914
			c-1.124,0-0.546-1.38-1.204-1.38c-0.851,0-2.231,3.032-2.231,5.071c0,0.627,0.257,0.964,0.723,0.964
			c0.545,0,1.364-0.482,1.797-1.718c0.032-0.081,0.097-0.112,0.16-0.112c0.097,0,0.192,0.079,0.192,0.289
			c-0.336,1.364-1.428,2.503-2.904,2.503c-1.171,0-2.151-0.675-2.151-2.198C116.314,96.549,118.402,92.986,121.242,92.986z"/>
		<path fill="#CACD19" d="M124.485,99.245c0,0.161,0.113,0.321,0.306,0.321c0.288,0,0.817-0.353,1.427-1.493
			c0.017-0.031,0.049-0.064,0.097-0.064c0.063,0,0.24,0.098,0.24,0.225c-0.754,1.701-1.91,2.408-2.777,2.408
			c-0.69,0-1.203-0.448-1.203-1.172c0-1.171,1.589-4.302,1.589-5.072c0-0.207-0.113-0.319-0.272-0.319
			c-0.128,0-0.273,0.047-0.401,0.144c-0.482,0.386-0.69,0.787-0.738,0.995c0,0.017-0.032,0.033-0.049,0.033
			c-0.096,0-0.256-0.065-0.256-0.112c0.368-1.462,1.717-2.151,2.664-2.151c0.722,0,1.139,0.402,1.139,1.189
			C126.25,95.441,124.485,98.475,124.485,99.245z M127.148,89.791c0,0.658-0.546,1.19-1.236,1.19c-0.69,0-1.235-0.531-1.235-1.19
			c0-0.657,0.546-1.186,1.235-1.186C126.602,88.605,127.148,89.134,127.148,89.791z"/>
		<path fill="#CACD19" d="M128.786,100.595c-1.139,0-1.718-0.787-1.718-1.928c0-2.311,2.938-5.681,5.297-5.681
			c0.497,0,0.898,0.337,0.979,0.835c0.097-0.272,0.208-0.562,0.241-0.691c0.048-0.192,0.562-0.272,0.931-0.272
			c0.417,0,0.818,0.098,0.818,0.258c0,0.385-2.038,4.831-2.038,6.001c0,0.226,0.096,0.338,0.289,0.338
			c0.37,0,1.187-0.884,1.316-1.637c0.017-0.049,0.048-0.064,0.096-0.064c0.097,0,0.225,0.098,0.225,0.256
			c-0.465,1.687-1.781,2.586-2.744,2.586c-0.577,0-1.027-0.338-1.027-1.012c0-0.177,0.047-0.643,0.144-0.947
			C130.825,100.047,129.812,100.595,128.786,100.595z M132.767,94.285c0-0.4-0.064-0.785-0.514-0.785
			c-0.914,0-3.114,3.9-3.114,5.554c0,0.434,0.113,0.706,0.482,0.706c0.61,0,1.476-0.739,2.214-2.617
			c0.145-0.386,0.53-1.316,0.755-2.053C132.686,94.783,132.767,94.544,132.767,94.285z"/>
		<path fill="#CACD19" d="M138.722,89.553c-0.161-0.177-0.546-0.225-0.755-0.225c-0.111,0-0.176-0.098-0.176-0.194
			c0-0.079,0.032-0.128,0.112-0.145c0.706-0.112,2.503-0.337,2.97-0.337c0.176,0,0.257,0.049,0.257,0.178
			c0,0.047-0.017,0.129-0.049,0.208c-0.129,0.29-2.922,8.812-2.922,9.854c0,0.322,0.113,0.497,0.354,0.497
			c0.352,0,0.931-0.481,1.492-1.796c0.016-0.032,0.049-0.049,0.065-0.049c0.08,0,0.256,0.097,0.256,0.225
			c-0.61,1.894-1.941,2.776-2.936,2.776c-0.707,0-1.285-0.433-1.285-1.251c0-0.193,0.032-0.402,0.097-0.642
			C136.892,95.923,138.689,90.435,138.722,89.553z"/>
		<path fill="#CACD19" d="M142.991,99.245c0,0.161,0.113,0.321,0.305,0.321c0.289,0,0.819-0.353,1.429-1.493
			c0.016-0.031,0.048-0.064,0.096-0.064c0.064,0,0.241,0.098,0.241,0.225c-0.754,1.701-1.91,2.408-2.777,2.408
			c-0.69,0-1.203-0.448-1.203-1.172c0-1.171,1.588-4.302,1.588-5.072c0-0.207-0.111-0.319-0.272-0.319
			c-0.128,0-0.273,0.047-0.401,0.144c-0.482,0.386-0.691,0.787-0.738,0.995c0,0.017-0.033,0.033-0.048,0.033
			c-0.097,0-0.257-0.065-0.257-0.112c0.37-1.462,1.717-2.151,2.665-2.151c0.722,0,1.139,0.402,1.139,1.189
			C144.756,95.441,142.991,98.475,142.991,99.245z M145.655,89.791c0,0.658-0.544,1.19-1.235,1.19c-0.689,0-1.235-0.531-1.235-1.19
			c0-0.657,0.546-1.186,1.235-1.186C145.11,88.605,145.655,89.134,145.655,89.791z"/>
		<path fill="#CACD19" d="M146.666,98.667c1.011,0,2.103,1.302,3.163,1.302c0.641,0,1.075-0.321,1.075-0.724
			c0-0.064,0.049-0.095,0.128-0.095c0.113,0,0.208,0.078,0.208,0.433c0,1.732-0.771,2.567-1.684,2.567
			c-1.654,0-2.344-2.728-3.42-2.728c-0.465,0-0.609,0.256-0.673,0.658c-0.032,0.208-0.177,0.288-0.321,0.288
			c-0.145,0-0.257-0.128-0.257-0.322c0-2.391,4.349-4.285,5.376-5.135c-0.225,0.129-0.417,0.144-0.803,0.144
			c-0.385,0-1.171-0.208-1.781-0.208c-0.449,0-0.754,0.017-0.883,0.386c-0.016,0.063-0.064,0.095-0.145,0.095
			c-0.048,0-0.112-0.064-0.112-0.16c0-1.395,0.642-2.277,1.524-2.277c1.123,0,1.637,0.961,2.311,0.961
			c0.434,0,0.689-0.207,0.689-0.609c0-0.208,0.146-0.287,0.257-0.287c0.145,0,0.257,0.144,0.257,0.272
			c0,2.632-4.67,4.654-5.714,5.616C146.073,98.717,146.282,98.667,146.666,98.667z"/>
		<path fill="#CACD19" d="M153.489,98.54c0,0.72,0.272,1.139,0.834,1.139c0.803,0,1.766-0.771,2.167-1.782
			c0.017-0.046,0.08-0.079,0.16-0.079c0.081,0,0.225,0.064,0.177,0.209c-0.45,1.251-1.638,2.664-3.371,2.664
			c-1.172,0-2.039-0.562-2.039-2.071c0-2.295,2.327-5.633,5.136-5.633c0.834,0,1.204,0.578,1.204,1.204
			c0,0.947-0.979,2.166-3.98,2.84C153.633,97.449,153.489,98.059,153.489,98.54z M156.424,94.078c0-0.29-0.16-0.468-0.401-0.468
			c-0.786,0-1.637,1.479-2.167,3.068C155.864,95.747,156.424,94.704,156.424,94.078z"/>
		<path fill="#CACD19" d="M163.985,99.245c0,0.161,0.112,0.321,0.305,0.321c0.289,0,0.818-0.353,1.429-1.493
			c0.016-0.031,0.047-0.064,0.096-0.064c0.064,0,0.241,0.098,0.241,0.225c-0.755,1.701-1.909,2.408-2.777,2.408
			c-0.69,0-1.204-0.448-1.204-1.172c0-1.171,1.589-4.302,1.589-5.072c0-0.207-0.112-0.319-0.273-0.319
			c-0.129,0-0.273,0.047-0.401,0.144c-0.481,0.386-0.69,0.787-0.739,0.995c0,0.017-0.031,0.033-0.048,0.033
			c-0.097,0-0.256-0.065-0.256-0.112c0.369-1.462,1.717-2.151,2.664-2.151c0.723,0,1.14,0.402,1.14,1.189
			C165.751,95.441,163.985,98.475,163.985,99.245z M166.65,89.791c0,0.658-0.546,1.19-1.236,1.19c-0.69,0-1.236-0.531-1.236-1.19
			c0-0.657,0.546-1.186,1.236-1.186C166.104,88.605,166.65,89.134,166.65,89.791z"/>
		<path fill="#CACD19" d="M173.262,93.003c0.819,0,1.429,0.529,1.429,1.589c0,0.947-1.332,3.273-1.332,4.524
			c0,0.144,0.096,0.273,0.273,0.273c0.273,0,0.723-0.351,1.171-1.507c0.016-0.064,0.064-0.082,0.112-0.082
			c0.08,0,0.192,0.051,0.192,0.194c-0.497,1.846-1.749,2.601-2.696,2.601c-0.658,0-1.188-0.387-1.188-1.012
			c0-1.3,1.493-4.783,1.493-5.169c0-0.289-0.128-0.433-0.369-0.433c-0.578,0-1.637,1.043-2.456,2.97
			c-0.369,0.866-0.915,2.889-0.979,3.338c-0.032,0.177-0.145,0.225-0.337,0.225c-0.546,0-1.556-0.16-1.556-0.498
			c0-0.368,1.396-4.558,1.396-5.649c0-0.208-0.112-0.354-0.289-0.354c-0.096,0-0.209,0.048-0.336,0.146
			c-0.53,0.417-0.963,1.364-0.963,1.572c0,0.064-0.048,0.096-0.096,0.096c-0.081,0-0.257-0.079-0.257-0.208
			c0-0.818,1.124-2.632,2.745-2.632c0.642,0,1.011,0.45,1.011,1.189c0,0.545-0.241,1.379-0.402,1.828
			C170.935,93.869,172.283,93.003,173.262,93.003z"/>
		<path fill="#CACD19" d="M184.755,95.523c0-0.931-0.545-0.995-0.545-1.701c0-0.514,0.368-0.835,0.818-0.835
			c0.465,0,1.075,0.402,1.075,1.268c0,1.396-0.817,3.259-2.471,5.811c-2.054,3.112-4.703,5.376-6.483,5.376
			c-0.546,0-0.851-0.385-0.851-0.787c0-0.383,0.289-0.802,0.995-0.802c1.622,0,2.761-0.449,3.916-2.022
			c0.096-0.963,0.225-2.102,0.225-3.018c0-3.098-0.369-4.332-0.866-4.332c-0.417,0-0.642,0.785-0.69,1.46
			c0,0.064-0.064,0.081-0.128,0.081c-0.113,0-0.242-0.065-0.242-0.147c0-1.123,0.594-2.888,2.022-2.888
			c1.236,0,1.702,1.124,1.702,3.996c0,0.817-0.081,2.328-0.257,3.002C183.776,98.844,184.755,96.549,184.755,95.523z"/>
		<path fill="#CACD19" d="M193.423,95.523c0,2.246-1.781,5.168-4.622,5.168c-1.541,0-2.263-1.06-2.263-2.376
			c0-2.263,1.974-5.328,4.686-5.328C192.701,92.986,193.423,94.125,193.423,95.523z M188.479,99.229
			c0,0.562,0.145,0.931,0.482,0.931c0.995,0,2.712-3.883,2.712-5.696c0-0.562-0.16-0.914-0.546-0.914
			C189.972,93.549,188.479,97.415,188.479,99.229z"/>
		<path fill="#CACD19" d="M196.199,100.595c-0.802,0-1.428-0.467-1.428-1.444c0-1.142,1.588-4.061,1.588-4.704
			c0-0.271-0.062-0.417-0.336-0.417c-0.465,0-1.107,0.642-1.396,1.653c0,0.048-0.097,0.097-0.177,0.097
			c-0.096,0-0.192-0.049-0.192-0.194c0.417-1.556,1.668-2.582,2.969-2.582c0.627,0,1.107,0.352,1.107,1.075
			c0,1.38-1.589,4.172-1.589,4.799c0,0.4,0.21,0.61,0.53,0.61c0.578,0,1.412-0.562,2.086-2.151c0.338-0.804,1.076-3.114,1.203-3.965
			c0.033-0.177,0.209-0.272,0.627-0.272c0.85,0,1.363,0.209,1.363,0.434c0,0.497-1.555,4.607-1.555,5.408
			c0,0.305,0.111,0.435,0.271,0.435c0.498,0,1.139-0.788,1.332-1.606c0.016-0.063,0.065-0.096,0.113-0.096
			c0.08,0,0.176,0.063,0.176,0.209c-0.24,1.251-1.156,2.663-2.809,2.663c-0.529,0-0.932-0.417-0.932-1.156
			c0-0.288,0.082-0.899,0.209-1.25C198.607,99.887,197.18,100.595,196.199,100.595z"/>
		<path fill="#CACD19" d="M206.152,99.277c0,0.738-0.578,1.317-1.318,1.317c-0.736,0-1.315-0.579-1.315-1.317
			c0-0.723,0.578-1.316,1.315-1.316C205.574,97.961,206.152,98.555,206.152,99.277z"/>
	</g>
</g>
<g>
	<g>
		<path fill="#CACD19" d="M201.424,106.091c-6.626,0-13.43-2.956-17.199-2.956c-2.361,0-4.285,1.053-5.951,2.381
			c-0.258,0.218-0.614-0.179-0.357-0.397c1.627-1.368,3.69-2.518,6.745-2.518c6.229,0,9.343,2.082,17.159,2.082
			c2.439,0,8.191-0.179,13.23-1.745c0.318-0.1,0.516,0.396,0.158,0.515C209.873,105.119,205.549,106.091,201.424,106.091z"/>
	</g>
</g>
<g>
	<path fill="#004990" d="M168.463,68.012c1.353,0,2.431,1.1,2.431,2.476c0,1.397-1.078,2.486-2.442,2.486
		c-1.353,0-2.453-1.089-2.453-2.486c0-1.376,1.1-2.476,2.453-2.476H168.463z M168.452,68.397c-1.089,0-1.98,0.935-1.98,2.091
		c0,1.177,0.891,2.101,1.992,2.101c1.1,0.012,1.98-0.924,1.98-2.09c0-1.166-0.88-2.101-1.98-2.101H168.452z M167.99,71.928h-0.44
		v-2.761c0.232-0.033,0.451-0.065,0.781-0.065c0.418,0,0.693,0.088,0.858,0.209c0.165,0.121,0.253,0.308,0.253,0.571
		c0,0.363-0.242,0.583-0.539,0.671v0.023c0.242,0.044,0.407,0.265,0.462,0.671c0.066,0.43,0.132,0.594,0.176,0.682h-0.462
		c-0.066-0.088-0.132-0.34-0.187-0.703c-0.066-0.353-0.242-0.484-0.594-0.484h-0.308V71.928z M167.99,70.398h0.319
		c0.363,0,0.671-0.131,0.671-0.473c0-0.242-0.176-0.484-0.671-0.484c-0.143,0-0.242,0.012-0.319,0.022V70.398z"/>
</g>
<g>
	<g>
		<path fill-rule="evenodd" clip-rule="evenodd" fill="#D9DA55" d="M8.655,57.413c-0.359-1.075-0.79-2.043-1.063-2.857
			c-0.752-2.231-1.44-5.514,3.39-5.514h48.067c4.687,0,4.113,3.321,3.341,5.531c-0.283,0.811-0.723,1.776-1.091,2.85
			c-0.344,1.003-0.588,2.013-0.588,3.028v19.655c0,9.389-6.486,16.747-12.607,21.63c-6.175,4.925-12.338,7.619-12.384,7.64
			l-0.566,0.248l-0.572-0.236c-0.049-0.021-6.3-2.594-12.562-7.461c-6.215-4.829-12.786-12.188-12.786-21.82V60.451
			C9.232,59.432,8.992,58.418,8.655,57.413z"/>
		<path fill-rule="evenodd" clip-rule="evenodd" fill="#004990" d="M10.764,59.827c0-4.968-4.676-8.994,0.291-8.994h48.067
			c4.967,0,0.205,4.026,0.205,8.994v19.655c0,17.397-24.118,27.935-24.118,27.935s-24.445-10.06-24.445-27.935V59.827z"/>
		<path fill-rule="evenodd" clip-rule="evenodd" fill="#D9DA55" d="M23.635,73.698c0,0-2.294-0.474-3.603-2.166
			c-1.155-1.491-0.368-4.688-0.368-4.688s2.849,1.228,3.714,2.988C24.243,71.591,23.635,73.698,23.635,73.698z"/>
		<path fill-rule="evenodd" clip-rule="evenodd" fill="#D9DA55" d="M25.569,78.081c0,0-2.313,0.461-4.291-0.554
			c-1.743-0.895-2.501-4.074-2.501-4.074s3.169,0.002,4.771,1.249C25.152,75.95,25.569,78.081,25.569,78.081z"/>
		<path fill-rule="evenodd" clip-rule="evenodd" fill="#D9DA55" d="M26.908,76.974c0,0-1.804-1.071-2.347-2.915
			c-0.478-1.628,1.295-4.177,1.295-4.177s2.021,1.885,2.158,3.661C28.152,75.318,26.908,76.974,26.908,76.974z"/>
		<path fill-rule="evenodd" clip-rule="evenodd" fill="#FFFFFF" d="M29.888,97.253c0,0,3.392-1.139,3.781-4.478
			c0.389-3.339,0.329-5.054-0.408-5.942c-0.64-0.769-2.192-1.391-3.486-2.323c-0.199-0.144-2.337,0.496-2.521,0.336
			c-0.145-0.128,2.042-0.936,1.72-1.48c-1.252-1.777-3.193-5.836-2.759-5.955c0.407,0.215,2.678,4.604,4.204,5.696
			c1.527,1.095,3.458,2.607,3.892,1.415c0.196-0.537,0.379-1.7,0.355-2.973c-0.03-1.555-0.24-3.215-0.564-4.501
			c-0.157-0.627-2.052,0.319-2.142,0.097c-0.103-0.257,1.879-0.916,1.562-1.546c-0.349-0.832-0.752-1.789-1.104-2.839
			c-0.074-0.224-4.213-1.615-4.285-1.836c-0.087-0.268,4.022,1.286,3.812,0.375c-0.428-1.376-0.752-2.617-0.795-3.351
			c1.026,1.054,2.942,8.271,4.372,7.97c1.43-0.301,3.69-7.96,3.69-7.96s-0.315,2.448-0.76,4.399
			c-0.382,0.961,2.428-0.645,2.339-0.341c-0.092,0.315-2.781,1.933-2.879,2.155c-0.708,1.618-1.354,2.396-1.194,4.886
			c0.158,2.488-0.305,4.243,0.593,4.363c0.897,0.121,2.992-0.727,4.398-3.085c1.405-2.358,3.447-7.729,3.447-7.729
			c0.198,1.854-2.202,5.583-1.409,5.701c0.792,0.118,5.114-1.187,5.114-1.187c-1.428,1.397-5.669,2.163-5.669,2.163
			s-0.192,1.082-1.124,2.296c-0.594,0.738,1.377,2.399,1.181,2.604c-0.173,0.18-2.068-1.638-2.278-1.461
			c-1.891,1.58-3.426,1.881-3.905,3.608c-0.479,1.729-0.148,7.026,0.58,8.129c0.731,1.104,3.603,2.433,3.603,2.433
			s-3.754-1.234-4.435-0.924c-0.681,0.312-2.02,1.6-2.02,1.6s1.109-1.398,0.064-1.628C33.81,95.713,29.888,97.253,29.888,97.253z"/>
		<path fill-rule="evenodd" clip-rule="evenodd" fill="#D9DA55" d="M40.888,65.722c0,0-1.01-1.936-0.381-3.953
			c0.555-1.781,3.755-3.275,3.755-3.275s0.713,2.816-0.248,4.563C43.053,64.802,40.888,65.722,40.888,65.722z"/>
		<path fill-rule="evenodd" clip-rule="evenodd" fill="#D9DA55" d="M38.166,68.312c0,0-1.817-1.35-2.174-3.408
			c-0.315-1.814,1.918-4.397,1.918-4.397s1.952,2.257,1.88,4.198C39.719,66.647,38.166,68.312,38.166,68.312z"/>
		<path fill-rule="evenodd" clip-rule="evenodd" fill="#D9DA55" d="M39.871,70.398c0,0-0.201-1.971,1.03-3.543
			c1.087-1.385,3.973-1.86,3.973-1.86s-0.293,2.775-1.716,4.016C41.734,70.249,39.871,70.398,39.871,70.398z"/>
		<path fill-rule="evenodd" clip-rule="evenodd" fill="#D9DA55" d="M47.209,82.372c0,0,1.995-0.201,3.563,0.817
			c1.385,0.899,1.714,3.651,1.714,3.651s-2.671-0.259-3.902-1.445C47.353,84.209,47.209,82.372,47.209,82.372z"/>
		<path fill-rule="evenodd" clip-rule="evenodd" fill="#D9DA55" d="M46.087,79.395c0,0,1.729-0.953,3.635-0.644
			c1.678,0.272,3.251,2.619,3.251,2.619s-2.561,0.801-4.233,0.21C47.067,80.989,46.087,79.395,46.087,79.395z"/>
		<path fill-rule="evenodd" clip-rule="evenodd" fill="#D9DA55" d="M43.678,80.106c0,0,1.78,0.398,2.775,1.734
			c0.879,1.178,0.218,3.662,0.218,3.662s-2.203-0.992-2.851-2.377C43.172,81.743,43.678,80.106,43.678,80.106z"/>
		<path fill-rule="evenodd" clip-rule="evenodd" fill="#D9DA55" d="M44.869,73.164c0,0-0.082-1.831,1.139-3.229
			c1.076-1.233,4.103-1.438,4.103-1.438s-0.468,2.436-1.848,3.518C46.883,73.097,44.869,73.164,44.869,73.164z"/>
		<path fill-rule="evenodd" clip-rule="evenodd" fill="#D9DA55" d="M45.27,77.089c0,0,0.093-1.841,1.434-3.143
			c1.183-1.148,4.201-1.108,4.201-1.108s-0.692,2.399-2.162,3.372C47.274,77.184,45.27,77.089,45.27,77.089z"/>
		<path fill-rule="evenodd" clip-rule="evenodd" fill="#D9DA55" d="M49.313,77.559c0,0,0.507-1.783,2.115-2.801
			c1.418-0.898,4.362-0.284,4.362-0.284s-1.223,2.215-2.882,2.887C51.252,78.032,49.313,77.559,49.313,77.559z"/>
		<path fill-rule="evenodd" clip-rule="evenodd" fill="#D9DA55" d="M30.869,66.941c0,0-2.319-0.363-3.725-1.987
			c-1.239-1.433-0.635-4.661-0.635-4.661s2.917,1.088,3.883,2.804C31.357,64.81,30.869,66.941,30.869,66.941z"/>
		<path fill-rule="evenodd" clip-rule="evenodd" fill="#D9DA55" d="M32.718,63.845c0,0-2.07-1.003-2.852-2.954
			c-0.688-1.722,0.973-4.638,0.973-4.638s2.392,1.865,2.727,3.779C33.898,61.944,32.718,63.845,32.718,63.845z"/>
		<path fill-rule="evenodd" clip-rule="evenodd" fill="#D9DA55" d="M33.236,69.243c0,0-1.164-1.378-1.035-3.076
			c0.113-1.495,2.393-3.175,2.393-3.175s1.089,2.12,0.644,3.654C34.794,68.178,33.236,69.243,33.236,69.243z"/>
		<path fill-rule="evenodd" clip-rule="evenodd" fill="#D9DA55" d="M34.896,74.198c0,0-1.164-1.379-1.034-3.075
			c0.113-1.498,2.393-3.178,2.393-3.178s1.089,2.122,0.645,3.654C36.455,73.134,34.896,74.198,34.896,74.198z"/>
		<path fill-rule="evenodd" clip-rule="evenodd" fill="#D9DA55" d="M26.854,82.755c0,0,0.359,1.646-0.53,3.071
			c-0.784,1.256-3.504,1.838-3.504,1.838s0.044-2.262,1.128-3.422C25.033,83.081,26.854,82.755,26.854,82.755z"/>
		<path fill-rule="evenodd" clip-rule="evenodd" fill="#D9DA55" d="M26.534,81.21c0,0-1.538,1.306-3.55,1.369
			c-1.774,0.057-3.93-2.007-3.93-2.007s2.42-1.315,4.262-1.049C25.158,79.79,26.534,81.21,26.534,81.21z"/>
		<path fill-rule="evenodd" clip-rule="evenodd" fill="#D9DA55" d="M22.732,83.556c0,0-0.214,1.677-1.537,2.787
			c-1.166,0.98-3.936,0.769-3.936,0.769s0.805-2.151,2.223-2.956C20.9,83.354,22.732,83.556,22.732,83.556z"/>
		<path fill-rule="evenodd" clip-rule="evenodd" fill="#D9DA55" d="M20.566,78.549c0,0-1.463,1.045-3.239,0.959
			c-1.566-0.075-3.289-2.05-3.289-2.05s2.24-0.99,3.839-0.625C19.476,77.199,20.566,78.549,20.566,78.549z"/>
		<path fill-rule="evenodd" clip-rule="evenodd" fill="#D9DA55" d="M32.849,83.72c0,0-1.631-0.757-2.267-2.268
			c-0.564-1.334,0.69-3.627,0.69-3.627s1.892,1.425,2.182,2.911C33.742,82.223,32.849,83.72,32.849,83.72z"/>
		<path fill-rule="evenodd" clip-rule="evenodd" fill="#D9DA55" d="M29.986,69.674c0,0-1.774,0.475-3.374-0.215
			c-1.412-0.608-2.783-2.651-2.783-2.651s3.061-0.547,4.383,0.343C29.534,68.04,29.986,69.674,29.986,69.674z"/>
		<path fill-rule="evenodd" clip-rule="evenodd" fill="#D9DA55" d="M42.032,76.128c0,0-1.09-1.34-0.934-2.966
			c0.137-1.434,2.351-3.01,2.351-3.01s1.006,2.051,0.551,3.515C43.546,75.131,42.032,76.128,42.032,76.128z"/>
		<path fill-rule="evenodd" clip-rule="evenodd" fill="#D9DA55" d="M38.905,81.844c0,0-1.273-1.565-1.092-3.465
			c0.161-1.675,2.747-3.516,2.747-3.516s1.175,2.396,0.644,4.104C40.673,80.678,38.905,81.844,38.905,81.844z"/>
		<path fill-rule="evenodd" clip-rule="evenodd" fill="#D9DA55" d="M40.926,83.712c0,0,1.494,0.662,2.099,2.026
			c0.535,1.201-0.563,3.301-0.563,3.301s-1.744-1.266-2.032-2.61C40.14,85.083,40.926,83.712,40.926,83.712z"/>
		<path fill-rule="evenodd" clip-rule="evenodd" fill="#D9DA55" d="M31.327,73.174c0,0,0.468,1.739-0.055,3.286
			c-0.461,1.365-2.984,2.41-2.984,2.41s-0.514-2.217,0.265-3.54C29.331,74.009,31.327,73.174,31.327,73.174z"/>
		<path fill-rule="evenodd" clip-rule="evenodd" fill="#D9DA55" d="M35.352,61.606c0,0-1.091-1.341-0.935-2.966
			c0.136-1.433,2.351-3.01,2.351-3.01s1.006,2.051,0.552,3.514C36.864,60.607,35.352,61.606,35.352,61.606z"/>
		<path fill-rule="evenodd" clip-rule="evenodd" fill="#D9DA55" d="M44.953,68.991c0,0-0.066-1.476,0.917-2.602
			c0.867-0.992,3.304-1.157,3.304-1.157s-0.378,1.961-1.487,2.832C46.575,68.936,44.953,68.991,44.953,68.991z"/>
		<path fill-rule="evenodd" clip-rule="evenodd" fill="#D9DA55" d="M20.813,63.905c0,0,1.377-0.77,2.93-0.527
			c1.369,0.213,2.708,2.084,2.708,2.084s-2.057,0.649-3.428,0.183C21.651,65.178,20.813,63.905,20.813,63.905z"/>
		<path fill-rule="evenodd" clip-rule="evenodd" fill="#D9DA55" d="M18.091,60.153v-0.643c0-0.054-0.023-0.076-0.075-0.076h-0.711
			c-0.054,0-0.076-0.023-0.076-0.076v-3.82c0-0.053-0.023-0.076-0.075-0.076h-0.394c-0.037,0-0.06,0.015-0.091,0.046l-1.24,1.248
			c-0.016,0.022-0.03,0.03-0.03,0.053c0,0.015,0.008,0.038,0.03,0.053l0.469,0.462c0.023,0.015,0.03,0.03,0.053,0.03
			c0.015,0,0.038-0.007,0.054-0.03l0.227-0.234c0.023-0.023,0.038-0.03,0.068-0.03c0.038,0,0.06,0.03,0.06,0.083v2.217
			c0,0.054-0.023,0.076-0.076,0.076h-0.711c-0.053,0-0.075,0.022-0.075,0.076v0.643c0,0.053,0.023,0.075,0.075,0.075h2.444
			C18.067,60.229,18.091,60.206,18.091,60.153z"/>
		<path fill-rule="evenodd" clip-rule="evenodd" fill="#D9DA55" d="M22.353,58.966v-2.24c0-0.787-0.553-1.339-1.414-1.339h-0.228
			c-0.854,0-1.407,0.552-1.407,1.339v0.545c0,0.787,0.598,1.332,1.339,1.332h0.227c0.151,0,0.34-0.054,0.498-0.137
			c0.024-0.007,0.031-0.015,0.054-0.015c0.038,0,0.061,0.03,0.061,0.082v0.433c0,0.294-0.25,0.545-0.544,0.545h-0.214
			c-0.203,0-0.398-0.121-0.536-0.447c-0.015-0.038-0.038-0.053-0.061-0.053c-0.029,0-0.061,0.022-0.091,0.038l-0.604,0.31
			c-0.03,0.016-0.046,0.031-0.046,0.054c0,0.045,0.076,0.166,0.144,0.28c0.227,0.354,0.568,0.611,1.194,0.611h0.214
			C21.801,60.304,22.353,59.752,22.353,58.966z M21.483,57.271c0,0.304-0.242,0.537-0.544,0.537h-0.228
			c-0.303,0-0.537-0.233-0.537-0.537v-0.545c0-0.303,0.234-0.545,0.537-0.545h0.228c0.294,0,0.544,0.25,0.544,0.545V57.271z"/>
		<path fill-rule="evenodd" clip-rule="evenodd" fill="#D9DA55" d="M50.934,56.945c0-0.786-0.544-1.338-1.407-1.338h-0.272
			c-0.628,0-0.969,0.257-1.195,0.612c-0.069,0.113-0.144,0.235-0.144,0.28c0,0.023,0.015,0.038,0.045,0.054l0.606,0.31
			c0.028,0.015,0.06,0.038,0.09,0.038c0.022,0,0.045-0.016,0.061-0.054c0.136-0.325,0.332-0.446,0.537-0.446h0.272
			c0.294,0,0.545,0.25,0.545,0.544c0,0.424-0.447,0.621-0.885,0.887c-0.554,0.341-1.128,0.786-1.128,1.672v0.869
			c0,0.055,0.022,0.077,0.076,0.077h2.671c0.052,0,0.074-0.022,0.074-0.077v-0.642c0-0.053-0.022-0.075-0.074-0.075h-1.802
			c-0.053,0-0.075-0.024-0.075-0.076v-0.075c0-0.47,0.386-0.696,0.794-0.946C50.306,58.203,50.934,57.832,50.934,56.945z"/>
		<path fill-rule="evenodd" clip-rule="evenodd" fill="#D9DA55" d="M55.053,60.373v-0.642c0-0.053-0.023-0.075-0.076-0.075h-0.711
			c-0.054,0-0.075-0.024-0.075-0.076v-3.82c0-0.054-0.022-0.076-0.076-0.076h-0.394c-0.038,0-0.06,0.015-0.091,0.045l-1.241,1.249
			c-0.015,0.023-0.03,0.03-0.03,0.053c0,0.016,0.008,0.039,0.03,0.054l0.47,0.461c0.022,0.015,0.03,0.03,0.053,0.03
			c0.016,0,0.037-0.008,0.053-0.03l0.227-0.234c0.023-0.024,0.039-0.03,0.069-0.03c0.037,0,0.061,0.03,0.061,0.083v2.217
			c0,0.053-0.023,0.076-0.076,0.076h-0.711c-0.053,0-0.076,0.022-0.076,0.075v0.642c0,0.055,0.023,0.077,0.076,0.077h2.443
			C55.029,60.45,55.053,60.428,55.053,60.373z"/>
	</g>
</g>
<path fill-rule="evenodd" clip-rule="evenodd" fill="#004990" d="M24.32,42.357h2.795V29.584h5.203c5.591,0,9.047-2.445,9.047-7.376
	c0-4.931-3.456-7.337-9.047-7.337H24.32V42.357z M27.115,17.433h4.505c5.008,0,6.717,2.135,6.717,4.775
	c0,2.64-1.709,4.815-6.717,4.815h-4.505V17.433z"/>
<path fill-rule="evenodd" clip-rule="evenodd" fill="#004990" d="M61.701,33.273c0-5.475-3.998-9.551-9.665-9.551
	c-5.63,0-9.629,4.076-9.629,9.551c0,5.473,3.999,9.549,9.629,9.549C57.703,42.822,61.701,38.746,61.701,33.273z M58.906,33.273
	c0,4.076-2.64,7.219-6.87,7.219c-4.193,0-6.834-3.143-6.834-7.219c0-4.078,2.641-7.223,6.834-7.223
	C56.267,26.051,58.906,29.195,58.906,33.273z"/>
<path fill-rule="evenodd" clip-rule="evenodd" fill="#004990" d="M66.228,42.357h2.563v-10.25c0-2.446,1.747-5.823,5.63-5.823
	c0.698,0,1.164,0.078,1.475,0.195l0.505-2.525c-0.544-0.155-1.165-0.231-1.902-0.231c-3.183,0-5.085,1.902-5.823,3.843h-0.077
	v-3.378h-2.524c0.077,2.642,0.155,4.037,0.155,5.668V42.357z"/>
<path fill-rule="evenodd" clip-rule="evenodd" fill="#004990" d="M89.616,24.188h-5.241v-5.124h-2.562v5.124h-3.843v2.329h3.843
	V37.97c0,3.999,2.562,4.853,4.504,4.853c1.28,0,2.523-0.231,3.455-0.66l-0.117-2.368c-0.777,0.428-1.747,0.698-2.639,0.698
	c-1.593,0-2.642-0.542-2.642-3.26V26.517h5.241V24.188z"/>
<rect x="94.262" y="13.007" fill-rule="evenodd" clip-rule="evenodd" fill="#004990" width="2.562" height="29.351"/>
<path fill-rule="evenodd" clip-rule="evenodd" fill="#004990" d="M113.164,31.215c-4.35,0-11.299,0.388-11.299,6.289
	c0,3.532,3.027,5.318,6.251,5.318c2.91,0,4.93-1.01,6.405-3.416h0.078c0,0.971,0.077,2.058,0.233,2.951h2.484
	c-0.154-0.972-0.311-2.68-0.311-4.077v-8.113c0-4.427-3.067-6.444-6.64-6.444c-3.417,0-6.018,0.931-7.687,2.64l1.553,1.824
	c1.553-1.397,3.417-2.136,5.551-2.136c3.146,0,4.66,1.553,4.66,4.698v0.466H113.164z M114.444,33.312v1.319
	c0,3.223-1.785,5.861-5.513,5.861c-2.057,0-4.272-0.931-4.272-3.338c0-3.649,5.863-3.843,8.464-3.843H114.444z"/>
<path fill-rule="evenodd" clip-rule="evenodd" fill="#004990" d="M122.742,24.188c0.078,1.32,0.193,3.029,0.193,3.999v14.171h2.564
	V33.04c0-6.639,4.971-6.989,5.514-6.989c3.804,0,4.93,2.213,4.93,6.251v10.056h2.562v-11.53c0-4.504-2.214-7.104-6.833-7.104
	c-2.408,0-4.969,1.396-6.095,3.377h-0.078c0-0.971,0-1.94-0.116-2.912H122.742z"/>
<path fill-rule="evenodd" clip-rule="evenodd" fill="#004990" d="M161.678,13.007h-2.563v14.21h-0.077
	c-1.669-2.446-4.656-3.494-7.064-3.494c-5.668,0-9.667,4.076-9.667,9.551c0,5.473,3.999,9.549,9.667,9.549
	c2.408,0,5.396-1.048,7.064-3.494h0.077v3.029h2.563V13.007z M145.101,33.273c0-4.078,2.641-7.223,6.872-7.223
	c4.192,0,7.261,3.145,7.261,7.223c0,4.076-3.068,7.219-7.261,7.219C147.741,40.492,145.101,37.35,145.101,33.273z"/>
<path fill-rule="evenodd" clip-rule="evenodd" fill="#004990" d="M90.54,67.081c-1.992,3.083-4.849,3.986-7.631,3.986
	c-6.844,0-10.941-5.378-10.941-11.507c0-6.128,4.098-11.506,10.941-11.506c2.819,0,5.789,1.768,6.842,3.498l2.37-1.768
	c-2.331-2.97-5.903-4.212-9.212-4.212c-7.936,0-13.875,5.902-13.875,13.987c0,8.084,5.939,13.988,13.875,13.988
	c4.398,0,8.083-2.144,9.85-4.89L90.54,67.081z"/>
<rect x="96.796" y="44.445" fill-rule="evenodd" clip-rule="evenodd" fill="#004990" width="2.48" height="28.427"/>
<path fill-rule="evenodd" clip-rule="evenodd" fill="#004990" d="M108.89,55.273h-2.481v17.599h2.481V55.273z M109.453,50.51
	c0-1.053-0.902-1.806-1.806-1.806c-0.903,0-1.803,0.753-1.803,1.806c0,1.052,0.899,1.804,1.803,1.804
	C108.551,52.314,109.453,51.562,109.453,50.51z"/>
<path fill-rule="evenodd" clip-rule="evenodd" fill="#004990" d="M115.803,55.273c0.074,1.28,0.188,2.933,0.188,3.874v13.725h2.481
	v-9.024c0-6.429,4.815-6.768,5.341-6.768c3.685,0,4.774,2.143,4.774,6.053v9.739h2.483V61.705c0-4.361-2.144-6.881-6.618-6.881
	c-2.33,0-4.814,1.354-5.903,3.27h-0.076c0-0.939,0-1.88-0.111-2.82H115.803z"/>
<path fill-rule="evenodd" clip-rule="evenodd" fill="#004990" d="M141.065,55.273h-2.482v17.599h2.482V55.273z M141.63,50.51
	c0-1.053-0.9-1.806-1.806-1.806c-0.902,0-1.803,0.753-1.803,1.806c0,1.052,0.9,1.804,1.803,1.804
	C140.729,52.314,141.63,51.562,141.63,50.51z"/>
<path fill-rule="evenodd" clip-rule="evenodd" fill="#004990" d="M161.891,57.868c-1.73-2.029-4.061-3.008-6.429-3.044
	c-5.753-0.075-9.325,3.947-9.325,9.248c0,5.303,3.572,9.326,9.325,9.25c2.368-0.037,4.699-1.015,6.429-3.045l-2.032-1.541
	c-0.826,1.277-2.443,2.331-4.397,2.331c-4.1,0.074-6.619-2.972-6.619-6.995c0-4.022,2.52-7.068,6.619-6.992
	c1.953,0,3.57,1.053,4.397,2.33L161.891,57.868z"/>
<path fill-rule="evenodd" clip-rule="evenodd" fill="#004990" d="M53.907,4.867h-9.411v1.715c0,0,3.431,0,3.952,0
	c0,0.578,0,10.705,0,10.705h1.812c0,0,0-10.127,0-10.705c0.521,0,3.953,0,3.953,0V4.867H53.907z"/>
<path fill-rule="evenodd" clip-rule="evenodd" fill="#004990" d="M64.891,4.867h-1.508c0,0,0,4.578,0,5.119
	c-0.528,0-5.295,0-5.823,0c0-0.541,0-5.119,0-5.119h-1.814v12.42h1.814c0,0,0-5.039,0-5.587c0.528,0,5.295,0,5.823,0
	c0,0.547,0,5.587,0,5.587h1.815V4.867H64.891z"/>
<path fill-rule="evenodd" clip-rule="evenodd" fill="#004990" d="M75.723,4.867h-7.627v12.42h8.135v-1.715c0,0-5.766,0-6.32,0
	c0-0.493,0-3.379,0-3.872c0.549,0,5.72,0,5.72,0V9.986c0,0-5.171,0-5.72,0c0-0.479,0-2.925,0-3.404c0.553,0,6.119,0,6.119,0V4.867
	H75.723z"/>
</svg>
