<?xml version="1.0" encoding="utf-8"?>
<!-- Generator: Adobe Illustrator 18.0.0, SVG Export Plug-In . SVG Version: 6.00 Build 0)  -->
<svg version="1.2" baseProfile="tiny" id="Layer_1" xmlns="http://www.w3.org/2000/svg" xmlns:xlink="http://www.w3.org/1999/xlink"
	 x="0px" y="0px" viewBox="215.667 365.667 182 62.333" xml:space="preserve">
<rect x="218.682" y="369.805" fill="#D5D755" width="176.027" height="0.541"/>
<rect x="218.682" y="422.505" fill="#D5D755" width="176.027" height="0.541"/>
<g>
	<path fill="#004990" d="M223.164,386.109c0,0.85,0.232,1.314,0.773,1.314c1.005,0,2.241-2.395,2.241-4.714
		c0-1.005-0.232-1.391-0.773-1.391C224.245,381.318,223.164,384.332,223.164,386.109 M227.645,383.636
		c0,1.855-1.236,4.173-3.632,4.173c-1.159,0-2.241-0.773-2.241-2.55c0-1.932,1.468-4.327,3.555-4.327
		C226.564,380.855,227.645,381.705,227.645,383.636"/>
	<path fill="#004990" d="M229.114,387.732c-0.464,0-0.773-0.232-0.773-0.85c0-0.618,0.85-2.318,0.85-2.705
		c0-0.155,0-0.232-0.155-0.232c-0.232,0-0.618,0.386-0.773,0.927l-0.077,0.077c-0.077,0-0.077,0-0.077-0.077
		c0.232-0.85,0.927-1.468,1.623-1.468c0.309,0,0.618,0.232,0.618,0.618c0,0.773-0.85,2.395-0.85,2.705
		c0,0.232,0.077,0.309,0.309,0.309c0.309,0,0.773-0.309,1.159-1.236c0.155-0.464,0.618-1.777,0.695-2.241
		c0-0.077,0.155-0.155,0.309-0.155c0.464,0,0.773,0.155,0.773,0.232c0,0.309-0.85,2.627-0.85,3.091c0,0.155,0.077,0.232,0.155,0.232
		c0.309,0,0.618-0.464,0.773-0.927c0,0,0-0.077,0.077-0.077c0.077,0,0.077,0,0.077,0.155c-0.155,0.695-0.618,1.545-1.545,1.545
		c-0.309,0-0.541-0.232-0.541-0.618c0-0.155,0.077-0.541,0.077-0.695C230.427,387.268,229.655,387.732,229.114,387.732"/>
	<path fill="#004990" d="M236.609,383.405c0.232,0,0.386,0.232,0.386,0.464c0,0.309-0.232,0.773-0.464,0.773
		c-0.309,0-0.309-0.309-0.541-0.309c-0.309,0-0.695,0.773-0.927,1.314c-0.232,0.618-0.541,1.7-0.541,1.932
		c0,0.077-0.077,0.077-0.155,0.077c-0.155,0-0.85-0.077-0.85-0.232c0-0.232,0.773-2.859,0.773-3.168
		c0-0.155-0.077-0.232-0.155-0.232c-0.386,0-0.773,0.85-0.773,1.005c0,0,0,0.077-0.077,0.077c-0.077,0-0.077,0-0.077-0.077
		c0-0.541,0.695-1.468,1.468-1.468c0.386,0,0.541,0.232,0.541,0.773c0,0.386-0.077,0.773-0.232,1.159
		C235.527,383.945,236.068,383.405,236.609,383.405"/>
	<path fill="#004990" d="M244.414,381.086c0.077,0,0.155-0.077,0.232-0.077c0.155,0,0.927,0,1.314,0c0.155,0,0.309,0,0.541,0v0.077
		c0,0.077,0,0.155,0,0.155c-0.695,0.155-0.85,0.541-0.927,1.082c-0.077,0.386-0.386,2.627-0.618,4.173c0,0.077,0,0.155,0,0.232
		c0,0.464,0.464,0.541,0.695,0.541c0,0,0,0,0,0.077s0,0.155-0.077,0.155c-0.927,0-1.082-0.077-1.468-0.077s-1.005,0-1.545,0v-0.077
		c0-0.077,0-0.077,0-0.077c0.541-0.077,0.85-0.232,1.005-0.773c0.155-0.85,0.695-4.405,0.773-4.559
		c-0.077,0.077-0.232,0.386-0.386,0.695c-0.773,1.391-2.395,4.482-2.473,4.714c-0.077,0.077-0.155,0.155-0.232,0.155
		c-0.077,0-0.155-0.077-0.155-0.155c0-0.309-0.309-3.555-0.386-4.25c-0.077-0.618-0.077-0.85-0.077-1.005
		c-0.077,0.309-1.159,3.941-1.159,4.559c0,0.386,0.077,0.618,0.618,0.695v0.077c0,0.077,0,0.155-0.077,0.155
		c-0.464,0-0.695-0.077-1.005-0.077c-0.232,0-0.541,0-1.082,0c0,0,0-0.077,0-0.155s0-0.077,0-0.155
		c0.695-0.155,0.927-0.309,1.082-0.85c0.309-1.159,1.082-3.786,1.159-4.173c0.077-0.155,0.077-0.232,0.077-0.309
		c0-0.464-0.464-0.618-0.85-0.695c0,0,0,0,0-0.077s0-0.155,0.077-0.155c0.541,0.077,0.773,0.077,1.314,0.077
		c0.155,0,0.773,0,1.005,0c0.155,0,0.155,0.077,0.232,0.155c0.077,1.082,0.155,2.859,0.309,4.018
		C243.023,383.714,244.182,381.164,244.414,381.086"/>
	<path fill="#004990" d="M249.05,381.55c0,0.386-0.309,0.695-0.695,0.695s-0.695-0.309-0.695-0.695c0-0.386,0.309-0.695,0.695-0.695
		C248.741,380.932,249.05,381.241,249.05,381.55 M247.582,386.959c0,0.077,0.077,0.155,0.155,0.155c0.155,0,0.464-0.232,0.773-0.85
		c0,0,0,0,0.077,0c0,0,0.155,0.077,0.155,0.155c-0.386,0.927-1.082,1.391-1.545,1.391c-0.386,0-0.695-0.232-0.695-0.695
		c0-0.695,0.85-2.473,0.85-2.859c0-0.155-0.077-0.155-0.155-0.155c-0.077,0-0.155,0-0.232,0.077
		c-0.232,0.232-0.386,0.464-0.386,0.541l0,0c-0.077,0-0.155,0-0.155-0.077c0.232-0.85,0.927-1.236,1.468-1.236
		c0.386,0,0.618,0.232,0.618,0.695C248.509,384.795,247.582,386.495,247.582,386.959"/>
	<path fill="#004990" d="M248.586,386.959c0-0.309,0.155-0.464,0.386-0.464c0.155,0,0.309,0.077,0.309,0.386
		c0,0.309,0.155,0.464,0.386,0.464c0.309,0,0.464-0.155,0.464-0.541c0-0.618-0.695-1.391-0.695-2.241s0.618-1.314,1.314-1.314
		c0.618,0,0.927,0.232,0.927,0.773c0,0.232-0.155,0.386-0.386,0.386c-0.155,0-0.309-0.155-0.309-0.386
		c0-0.232-0.077-0.386-0.309-0.386c-0.232,0-0.309,0.155-0.309,0.464c0,0.541,0.773,1.468,0.773,2.241
		c0,0.773-0.541,1.314-1.468,1.314C249.05,387.732,248.586,387.423,248.586,386.959"/>
	<path fill="#004990" d="M251.523,386.959c0-0.309,0.155-0.464,0.386-0.464c0.155,0,0.309,0.077,0.309,0.386
		c0,0.309,0.155,0.464,0.386,0.464c0.309,0,0.464-0.155,0.464-0.541c0-0.618-0.695-1.391-0.695-2.241s0.618-1.314,1.314-1.314
		c0.618,0,0.927,0.232,0.927,0.773c0,0.232-0.155,0.386-0.386,0.386c-0.155,0-0.309-0.155-0.309-0.386
		c0-0.232-0.077-0.386-0.309-0.386c-0.232,0-0.309,0.155-0.309,0.464c0,0.541,0.773,1.468,0.773,2.241
		c0,0.773-0.541,1.314-1.468,1.314C251.909,387.732,251.523,387.423,251.523,386.959"/>
	<path fill="#004990" d="M257.473,381.55c0,0.386-0.309,0.695-0.695,0.695s-0.695-0.309-0.695-0.695
		c0-0.386,0.309-0.695,0.695-0.695C257.164,380.932,257.473,381.241,257.473,381.55 M256.005,386.959
		c0,0.077,0.077,0.155,0.155,0.155c0.155,0,0.464-0.232,0.773-0.85c0,0,0,0,0.077,0c0,0,0.155,0.077,0.155,0.155
		c-0.386,0.927-1.082,1.391-1.545,1.391c-0.386,0-0.695-0.232-0.695-0.695c0-0.695,0.85-2.473,0.85-2.859
		c0-0.155-0.077-0.155-0.155-0.155c-0.077,0-0.155,0-0.232,0.077c-0.232,0.232-0.386,0.464-0.386,0.541l0,0
		c-0.077,0-0.155,0-0.155-0.077c0.232-0.85,0.927-1.236,1.468-1.236c0.386,0,0.618,0.232,0.618,0.695
		C257.009,384.795,256.005,386.495,256.005,386.959"/>
	<path fill="#004990" d="M258.555,386.959c0,0.309,0.077,0.541,0.232,0.541c0.541,0,1.468-2.241,1.468-3.245
		c0-0.309-0.077-0.541-0.309-0.541C259.327,383.714,258.555,385.877,258.555,386.959 M261.259,384.795
		c0,1.236-1.005,2.936-2.55,2.936c-0.85,0-1.236-0.618-1.236-1.314c0-1.314,1.082-3.014,2.627-3.014
		C260.873,383.405,261.259,384.023,261.259,384.795"/>
	<path fill="#004990" d="M265.432,383.405c0.464,0,0.773,0.309,0.773,0.927c0,0.541-0.773,1.855-0.773,2.55
		c0,0.077,0.077,0.155,0.155,0.155c0.155,0,0.386-0.232,0.618-0.85c0,0,0-0.077,0.077-0.077c0.077,0,0.077,0,0.077,0.077
		c-0.309,1.082-1.005,1.468-1.468,1.468c-0.386,0-0.695-0.232-0.695-0.541c0-0.773,0.85-2.705,0.85-2.936
		c0-0.155-0.077-0.232-0.232-0.232c-0.309,0-0.927,0.618-1.391,1.7c-0.232,0.464-0.541,1.623-0.541,1.855
		c0,0.077-0.077,0.155-0.155,0.155c-0.309,0-0.85-0.077-0.85-0.309s0.773-2.55,0.773-3.168c0-0.155-0.077-0.232-0.155-0.232
		c-0.077,0-0.155,0-0.155,0.077c-0.309,0.232-0.541,0.773-0.541,0.927c0,0,0,0.077-0.077,0.077s-0.155-0.077-0.155-0.155
		c0-0.464,0.618-1.468,1.545-1.468c0.386,0,0.541,0.232,0.541,0.695c0,0.309-0.155,0.773-0.232,1.005
		C264.118,383.868,264.891,383.405,265.432,383.405"/>
	<path fill="#004990" d="M268.677,384.255c0,0.309-0.232,0.541-0.541,0.541c-0.309,0-0.541-0.232-0.541-0.541
		c0-0.309,0.232-0.541,0.541-0.541C268.445,383.714,268.677,383.945,268.677,384.255 M268.136,387.114
		c0,0.309-0.232,0.541-0.541,0.541c-0.309,0-0.541-0.232-0.541-0.541c0-0.309,0.232-0.541,0.541-0.541
		C267.905,386.573,268.136,386.805,268.136,387.114"/>
	<path fill="#004990" d="M273.777,387.655c0,0.077-0.077,0.077-0.155,0.077s-0.155,0-0.155-0.077
		c-0.077-0.464-1.468-4.25-1.623-4.482c-0.155-0.232-0.386-0.386-0.541-0.464c0,0,0,0,0-0.077s0-0.077,0-0.077
		c0.309,0,0.618,0.077,0.927,0.077c0.309,0,0.618,0,0.927,0c0,0,0,0,0,0.077c0,0.077,0,0.155,0,0.155
		c-0.155,0-0.464,0.077-0.464,0.386c0,0.077,0,0.155,0.077,0.309c0.155,0.464,0.927,3.014,1.082,3.245
		c0.386-1.159,1.236-3.323,1.236-3.786c0-0.077,0.077-0.077,0.155-0.077c0.077,0,0.155,0,0.155,0.077
		c0.077,0.464,1.005,3.555,1.082,3.709c0.386-1.159,0.927-3.014,0.927-3.4c0-0.232-0.155-0.386-0.541-0.386
		c-0.077,0-0.077-0.077-0.077-0.155c0-0.077,0-0.077,0.077-0.077c0.309,0,0.618,0.077,0.927,0.077c0.232,0,0.464,0,0.541,0
		c0,0,0.077,0.077,0.077,0.155v0.077c-0.232,0-0.541,0.077-0.618,0.541c-0.232,0.927-1.314,4.095-1.391,4.25
		c0,0.077-0.077,0.077-0.155,0.077c-0.077,0-0.155,0-0.155-0.077c-0.077-0.309-0.618-2.086-1.082-3.4
		C274.55,385.645,273.777,387.5,273.777,387.655"/>
	<path fill="#004990" d="M280.191,385.336c0.232,0,0.309,0,0.309-0.232s-0.155-0.464-0.618-0.464c-0.386,0-0.773,0.309-0.85,0.773
		C279.186,385.414,279.65,385.414,280.191,385.336 M278.955,385.491c0,0.077-0.077,0.232-0.077,0.386
		c0,0.927,0.541,1.391,1.159,1.391c0.309,0,0.618-0.077,0.773-0.309c0,0,0,0,0.077,0s0.155,0.077,0.077,0.155
		c-0.155,0.309-0.464,0.618-1.082,0.618c-0.85,0-1.545-0.464-1.545-1.545c0-0.927,0.618-1.777,1.623-1.777
		c0.773,0,1.082,0.695,1.082,0.927c0,0.155,0,0.155-0.155,0.155C280.423,385.568,279.65,385.568,278.955,385.491"/>
	<path fill="#004990" d="M285.136,385.8c-0.927,0.309-1.159,0.695-1.159,1.082c0,0.309,0.155,0.464,0.386,0.464
		c0.232,0,0.386-0.077,0.695-0.464C285.136,386.573,285.136,386.186,285.136,385.8 M284.595,384.718
		c-0.386,0-0.541,0.077-0.618,0.386c-0.077,0.155-0.155,0.155-0.232,0.155c-0.155,0-0.232-0.077-0.232-0.232
		c0-0.232,0.232-0.618,1.159-0.618c0.85,0,1.082,0.232,1.082,0.85c0,0.309-0.077,1.005-0.077,1.7c0,0.155,0,0.309,0.232,0.309
		c0.155,0,0.232-0.077,0.309-0.155c0,0,0,0,0.077,0l0.077,0.077c0,0.077-0.155,0.464-0.618,0.464c-0.386,0-0.541-0.155-0.541-0.618
		c-0.232,0.386-0.618,0.618-1.005,0.618c-0.464,0-0.773-0.232-0.773-0.618c0-0.464,0.386-1.005,1.777-1.391v-0.386
		C285.214,384.95,285.136,384.718,284.595,384.718"/>
	<path fill="#004990" d="M288.691,384.486c0.386,0,0.464,0.155,0.464,0.386c0,0.155-0.077,0.309-0.232,0.309
		c-0.077,0-0.155,0-0.155-0.155c-0.077-0.077-0.155-0.155-0.309-0.155c-0.232,0-0.541,0.232-0.541,0.927c0,0.386,0,1.236,0,1.391
		c0,0.232,0.155,0.309,0.541,0.309v0.077v0.077c-0.309,0-0.541,0-0.773,0c-0.309,0-0.618,0-0.773,0c0,0,0,0,0-0.077s0-0.077,0-0.077
		c0.386,0,0.464-0.155,0.464-0.309c0-0.155,0-1.005,0-2.086c0-0.155-0.077-0.232-0.155-0.232h-0.309v-0.077c0-0.077,0-0.077,0-0.077
		c0.309,0,0.541-0.077,0.927-0.232c0.077,0,0.077,0.077,0.077,0.077c0,0.232,0,0.386,0,0.618
		C287.995,384.641,288.459,384.486,288.691,384.486"/>
	<path fill="#004990" d="M291.241,385.336c0.232,0,0.309,0,0.309-0.232s-0.155-0.464-0.618-0.464c-0.386,0-0.773,0.309-0.85,0.773
		C290.314,385.414,290.777,385.414,291.241,385.336 M290.082,385.491c0,0.077-0.077,0.232-0.077,0.386
		c0,0.927,0.541,1.391,1.159,1.391c0.309,0,0.618-0.077,0.773-0.309c0,0,0,0,0.077,0c0.077,0,0.155,0.077,0.077,0.155
		c-0.155,0.309-0.464,0.618-1.082,0.618c-0.85,0-1.545-0.464-1.545-1.545c0-0.927,0.618-1.777,1.623-1.777
		c0.773,0,1.082,0.695,1.082,0.927c0,0.155,0,0.155-0.155,0.155C291.55,385.568,290.7,385.568,290.082,385.491"/>
	<path fill="#004990" d="M296.264,385.8c-0.927,0.309-1.159,0.695-1.159,1.082c0,0.309,0.155,0.464,0.386,0.464
		s0.386-0.077,0.695-0.464C296.264,386.573,296.264,386.186,296.264,385.8 M295.723,384.718c-0.386,0-0.541,0.077-0.618,0.386
		c-0.077,0.155-0.155,0.155-0.232,0.155s-0.232-0.077-0.232-0.232c0-0.232,0.232-0.618,1.159-0.618c0.85,0,1.082,0.232,1.082,0.85
		c0,0.309-0.077,1.005-0.077,1.7c0,0.155,0,0.309,0.232,0.309c0.155,0,0.232-0.077,0.309-0.155c0,0,0,0,0.077,0l0.077,0.077
		c0,0.077-0.155,0.464-0.618,0.464c-0.386,0-0.541-0.155-0.541-0.618c-0.232,0.386-0.618,0.618-1.005,0.618
		c-0.464,0-0.773-0.232-0.773-0.618c0-0.464,0.386-1.005,1.777-1.391v-0.386C296.264,384.95,296.186,384.718,295.723,384.718"/>
	<path fill="#004990" d="M301.982,385.259c-0.077,0-0.232-0.077-0.232-0.232c-0.077-0.232-0.232-0.309-0.541-0.309
		c-0.541,0-1.005,0.386-1.005,1.314c0,1.005,0.541,1.391,1.082,1.391c0.386,0,0.695-0.155,0.85-0.464c0,0,0,0,0.077,0
		c0.077,0,0.155,0.077,0.155,0.155c-0.232,0.464-0.695,0.695-1.159,0.695c-0.773,0-1.623-0.541-1.623-1.468
		c0-1.082,0.773-1.777,1.7-1.777c0.541,0,0.927,0.232,0.927,0.541C302.214,385.182,302.136,385.259,301.982,385.259"/>
	<path fill="#004990" d="M303.45,386.109c0,0.927,0.386,1.391,1.005,1.391c0.618,0,1.005-0.541,1.005-1.391
		c0-0.85-0.386-1.391-1.005-1.391C303.759,384.641,303.45,385.182,303.45,386.109 M306.077,386.109c0,0.927-0.773,1.623-1.623,1.623
		c-0.927,0-1.623-0.695-1.623-1.623c0-0.927,0.773-1.623,1.623-1.623S306.077,385.182,306.077,386.109"/>
	<path fill="#004990" d="M310.559,384.486c0.464,0,0.927,0.309,0.927,0.85s-0.077,1.236-0.077,1.623c0,0.309,0,0.464,0.464,0.464
		v0.077v0.077c-0.155,0-0.386,0-0.695,0s-0.541,0-0.773,0c0,0,0,0,0-0.077c0-0.077,0-0.077,0-0.077c0.464,0,0.464-0.155,0.464-0.386
		c0-0.695,0-1.314,0-1.777c0-0.309-0.232-0.541-0.618-0.541c-0.386,0-0.773,0.309-0.773,0.85c0,0.386,0,1.005,0,1.314
		c0,0.386,0,0.541,0.464,0.541v0.077v0.077c-0.232,0-0.464,0-0.695,0c-0.309,0-0.541,0-0.773,0c0,0,0,0,0-0.077v-0.077
		c0.464,0,0.464-0.155,0.464-0.309c0-0.695,0-1.236,0-1.623c0-0.464-0.155-0.695-0.541-0.695s-0.85,0.309-0.85,1.159v1.236
		c0,0.232,0,0.309,0.464,0.309v0.077v0.077c-0.309,0-0.541,0-0.695,0c-0.309,0-0.541,0-0.695,0c0,0,0,0,0-0.077
		c0-0.077,0-0.077,0-0.077c0.386,0,0.464-0.077,0.464-0.386c0-0.85,0-1.623,0-2.086c0-0.155,0-0.232-0.155-0.232h-0.232v-0.077
		c0-0.077,0-0.077,0-0.077c0.309-0.077,0.541-0.077,0.85-0.232c0.077,0,0.077,0.077,0.077,0.077c0,0.232,0,0.464,0,0.695
		c0.155-0.464,0.618-0.773,1.082-0.773c0.386,0,0.695,0.232,0.85,0.695C309.632,384.718,310.173,384.486,310.559,384.486"/>
	<path fill="#004990" d="M314.191,387.577c0.464,0,1.005-0.309,1.005-1.468c0-0.85-0.309-1.391-1.005-1.391
		c-0.464,0-0.85,0.232-0.927,1.005c0,0.155,0,0.773,0,1.236C313.341,387.345,313.805,387.577,314.191,387.577 M313.341,389.123
		c0,0.232,0.077,0.386,0.541,0.386c0,0,0.077,0,0.077,0.077s0,0.155-0.077,0.155c-0.077,0-0.695,0-0.927,0c-0.232,0-0.541,0-0.773,0
		v-0.077c0-0.077,0-0.077,0-0.077c0.541,0,0.541-0.155,0.541-0.464c0-0.773,0-3.555,0-3.941c0-0.309-0.077-0.386-0.232-0.386h-0.232
		v-0.077c0-0.077,0-0.077,0-0.077c0.386,0,0.541-0.077,0.85-0.232c0.077,0,0.155,0.309,0.155,0.618
		c0.232-0.309,0.618-0.541,1.082-0.541c0.773,0,1.391,0.695,1.391,1.623c0,1.005-0.695,1.623-1.623,1.623
		c-0.386,0-0.773-0.232-0.927-0.386C313.341,388.195,313.341,389.045,313.341,389.123"/>
	<path fill="#004990" d="M318.209,384.486c0.386,0,0.464,0.155,0.464,0.386c0,0.155-0.077,0.309-0.232,0.309
		c-0.077,0-0.155,0-0.155-0.155c-0.077-0.077-0.155-0.155-0.309-0.155c-0.232,0-0.541,0.232-0.541,0.927c0,0.386,0,1.236,0,1.391
		c0,0.232,0.155,0.309,0.541,0.309v0.077v0.077c-0.309,0-0.541,0-0.773,0c-0.309,0-0.618,0-0.773,0c0,0,0,0,0-0.077s0-0.077,0-0.077
		c0.386,0,0.464-0.155,0.464-0.309c0-0.155,0-1.005,0-2.086c0-0.155-0.077-0.232-0.155-0.232h-0.309v-0.077c0-0.077,0-0.077,0-0.077
		c0.309,0,0.541-0.077,0.927-0.232c0.077,0,0.077,0.077,0.077,0.077c0,0.232,0,0.386,0,0.618
		C317.514,384.641,317.977,384.486,318.209,384.486"/>
	<path fill="#004990" d="M320.759,385.336c0.232,0,0.309,0,0.309-0.232s-0.155-0.464-0.618-0.464c-0.386,0-0.773,0.309-0.85,0.773
		C319.755,385.414,320.218,385.414,320.759,385.336 M319.523,385.491c0,0.077-0.077,0.232-0.077,0.386
		c0,0.927,0.541,1.391,1.159,1.391c0.309,0,0.618-0.077,0.773-0.309c0,0,0,0,0.077,0c0.077,0,0.155,0.077,0.077,0.155
		c-0.155,0.309-0.464,0.618-1.082,0.618c-0.85,0-1.545-0.464-1.545-1.545c0-0.927,0.618-1.777,1.623-1.777
		c0.773,0,1.082,0.695,1.082,0.927c0,0.155,0,0.155-0.155,0.155C320.991,385.568,320.218,385.568,319.523,385.491"/>
	<path fill="#004990" d="M322.073,382.632l-0.077-0.077c0-0.077,0-0.077,0.077-0.077c0.618,0,1.005-0.077,1.005-0.077
		c0.077,0,0.077,0,0.077,0.077c0,0.232-0.077,2.009-0.077,2.782c0.155-0.464,0.695-0.695,1.159-0.695
		c0.464,0,0.927,0.309,0.927,0.927c0,0.464-0.077,1.236-0.077,1.545c0,0.386,0.077,0.541,0.464,0.541v0.077v0.077
		c-0.232,0-0.464-0.077-0.85-0.077c-0.155,0-0.464,0-0.695,0c0,0,0,0,0-0.077V387.5c0.309,0,0.464-0.155,0.464-0.386
		c0-0.464,0-1.236,0-1.623c0-0.386-0.309-0.618-0.618-0.618c-0.464,0-0.927,0.309-0.927,1.236c0,0.386,0,1.005,0,1.159
		c0,0.232,0,0.309,0.464,0.309v0.077v0.077c-0.309,0-0.464,0-0.695,0c-0.309,0-0.618,0-0.773,0c0,0,0,0,0-0.077s0-0.077,0-0.077
		c0.386,0,0.464-0.077,0.464-0.309c0-0.695,0-3.709,0-4.173C322.536,382.709,322.459,382.632,322.073,382.632"/>
	<path fill="#004990" d="M327.868,385.336c0.232,0,0.309,0,0.309-0.232s-0.155-0.464-0.618-0.464c-0.386,0-0.773,0.309-0.85,0.773
		C326.941,385.414,327.405,385.414,327.868,385.336 M326.709,385.491c0,0.077-0.077,0.232-0.077,0.386
		c0,0.927,0.541,1.391,1.159,1.391c0.309,0,0.618-0.077,0.773-0.309c0,0,0,0,0.077,0s0.155,0.077,0.077,0.155
		c-0.155,0.309-0.464,0.618-1.082,0.618c-0.85,0-1.545-0.464-1.545-1.545c0-0.927,0.618-1.777,1.623-1.777
		c0.773,0,1.082,0.695,1.082,0.927c0,0.155,0,0.155-0.155,0.155C328.177,385.568,327.327,385.568,326.709,385.491"/>
	<path fill="#004990" d="M331.423,384.486c0.464,0,1.005,0.309,1.005,0.927c0,0.464-0.077,1.236-0.077,1.545
		c0,0.464,0.077,0.541,0.464,0.541v0.077v0.077c-0.155,0-0.386,0-0.695,0s-0.541,0-0.773,0c0,0,0,0,0-0.077c0-0.077,0-0.077,0-0.077
		c0.386,0,0.464-0.155,0.464-0.386c0-0.386,0-1.236,0-1.7c0-0.386-0.309-0.618-0.618-0.618c-0.386,0-0.927,0.155-0.927,1.236
		c0,0.309,0,1.005,0,1.159c0,0.232,0.077,0.309,0.464,0.309v0.077v0.077c-0.232,0-0.541,0-0.695,0c-0.309,0-0.541,0-0.773,0
		c0,0,0,0,0-0.077c0-0.077,0-0.077,0-0.077c0.464,0,0.464-0.155,0.464-0.309c0-0.927,0-1.623,0-2.086
		c0-0.155-0.077-0.232-0.155-0.232h-0.232v-0.077c0-0.077,0-0.077,0-0.077c0.309,0,0.541-0.077,0.927-0.232
		c0.077,0,0.077,0.077,0.077,0.077c0,0.232,0,0.386,0,0.618C330.418,384.718,330.959,384.486,331.423,384.486"/>
	<path fill="#004990" d="M335.209,384.641c0.077,0,0.077,0,0.077,0.077s0,0.464,0,0.695l-0.077,0.077c0,0-0.077,0-0.077-0.077
		c-0.077-0.464-0.386-0.695-0.773-0.695c-0.232,0-0.541,0.155-0.541,0.541c0,0.618,1.623,0.464,1.623,1.545
		c0,0.695-0.618,1.005-1.082,1.005c-0.386,0-0.618-0.155-0.695-0.232l-0.077-0.077c0,0-0.077,0-0.077,0.077c0,0,0,0-0.077,0
		c0,0-0.077,0-0.077-0.077c0-0.077,0-0.541,0-0.773c0,0,0-0.077,0.077-0.077c0,0,0.077,0,0.077,0.077
		c0.077,0.541,0.464,0.85,0.85,0.85s0.618-0.155,0.618-0.541c0-0.85-1.545-0.541-1.545-1.623c0-0.618,0.541-0.927,0.927-0.927
		c0.309,0,0.541,0.155,0.695,0.309C335.132,384.718,335.209,384.718,335.209,384.641"/>
	<path fill="#004990" d="M337.141,382.864c0,0.232-0.155,0.386-0.386,0.386c-0.232,0-0.386-0.155-0.386-0.386
		s0.155-0.386,0.386-0.386C336.986,382.477,337.141,382.709,337.141,382.864 M337.527,387.577L337.527,387.577
		c-0.232,0.077-0.464,0-0.773,0c-0.232,0-0.541,0-0.695,0c0,0,0,0,0-0.077v-0.077c0.386,0,0.464-0.077,0.464-0.309v-2.086
		c0-0.155,0-0.232-0.155-0.232h-0.232l-0.077-0.077c0-0.077,0-0.077,0.077-0.077c0.309,0,0.618-0.077,0.85-0.232
		c0.077,0,0.155,0.077,0.155,0.077c0,0.232-0.077,1.777-0.077,2.55c0,0.232,0,0.309,0.464,0.309
		C337.527,387.423,337.527,387.5,337.527,387.577"/>
	<path fill="#004990" d="M339.382,387.655c-0.077,0-0.155,0-0.155-0.077c0-0.155-0.309-0.773-0.618-1.468
		c-0.464-1.159-0.618-1.391-0.85-1.468v-0.077v-0.077c0.077,0,0.309,0,0.695,0c0.309,0,0.541,0,0.618,0c0,0,0,0,0,0.077v0.077
		c-0.232,0-0.309,0.077-0.309,0.232c0,0,0,0.077,0,0.155c0.155,0.464,0.618,1.468,0.773,1.932c0.155-0.386,0.773-1.7,0.773-2.009
		c0-0.155,0-0.232-0.309-0.232v-0.077v-0.077c0.077,0,0.386,0,0.541,0c0.155,0,0.464,0,0.541,0c0,0,0,0,0,0.077v0.077
		c-0.232,0.077-0.309,0.155-0.386,0.309c-0.077,0.077-0.155,0.309-0.309,0.618c-0.386,0.773-0.85,1.777-0.927,2.009
		C339.459,387.655,339.459,387.655,339.382,387.655"/>
	<path fill="#004990" d="M343.091,385.336c0.232,0,0.309,0,0.309-0.232s-0.155-0.464-0.618-0.464c-0.386,0-0.773,0.309-0.85,0.773
		C342.164,385.414,342.627,385.414,343.091,385.336 M341.932,385.491c0,0.077-0.077,0.232-0.077,0.386
		c0,0.927,0.541,1.391,1.159,1.391c0.309,0,0.618-0.077,0.773-0.309c0,0,0,0,0.077,0c0.077,0,0.155,0.077,0.077,0.155
		c-0.155,0.309-0.464,0.618-1.082,0.618c-0.85,0-1.545-0.464-1.545-1.545c0-0.927,0.618-1.777,1.623-1.777
		c0.773,0,1.082,0.695,1.082,0.927c0,0.155,0,0.155-0.155,0.155C343.4,385.568,342.627,385.568,341.932,385.491"/>
	<path fill="#004990" d="M350.355,384.486c0.464,0,0.927,0.309,0.927,0.85s-0.077,1.236-0.077,1.623c0,0.309,0,0.464,0.464,0.464
		v0.077v0.077c-0.155,0-0.386,0-0.695,0c-0.309,0-0.541,0-0.773,0c0,0,0,0,0-0.077c0-0.077,0-0.077,0-0.077
		c0.464,0,0.464-0.155,0.464-0.386c0-0.695,0-1.314,0-1.777c0-0.309-0.232-0.541-0.618-0.541s-0.773,0.309-0.773,0.85
		c0,0.386,0,1.005,0,1.314c0,0.386,0,0.541,0.464,0.541v0.077v0.077c-0.232,0-0.464,0-0.695,0c-0.309,0-0.541,0-0.773,0
		c0,0,0,0,0-0.077v-0.077c0.464,0,0.464-0.155,0.464-0.309c0-0.695,0-1.236,0-1.623c0-0.464-0.155-0.695-0.541-0.695
		c-0.386,0-0.85,0.309-0.85,1.159v1.236c0,0.232,0,0.309,0.464,0.309v0.077v0.077c-0.309,0-0.541,0-0.695,0
		c-0.309,0-0.541,0-0.695,0c0,0,0,0,0-0.077c0-0.077,0-0.077,0-0.077c0.386,0,0.464-0.077,0.464-0.386c0-0.85,0-1.623,0-2.086
		c0-0.155,0-0.232-0.155-0.232h-0.232v-0.077c0-0.077,0-0.077,0-0.077c0.309-0.077,0.541-0.077,0.85-0.232
		c0.077,0,0.077,0.077,0.077,0.077c0,0.232,0,0.464,0,0.695c0.155-0.464,0.618-0.773,1.082-0.773c0.386,0,0.695,0.232,0.85,0.695
		C349.427,384.718,349.968,384.486,350.355,384.486"/>
	<path fill="#004990" d="M353.986,385.336c0.232,0,0.309,0,0.309-0.232s-0.155-0.464-0.618-0.464c-0.386,0-0.773,0.309-0.85,0.773
		C353.059,385.414,353.445,385.414,353.986,385.336 M352.75,385.491c0,0.077-0.077,0.232-0.077,0.386
		c0,0.927,0.541,1.391,1.159,1.391c0.309,0,0.618-0.077,0.773-0.309c0,0,0,0,0.077,0c0.077,0,0.155,0.077,0.077,0.155
		c-0.155,0.309-0.464,0.618-1.082,0.618c-0.85,0-1.545-0.464-1.545-1.545c0-0.927,0.618-1.777,1.623-1.777
		c0.773,0,1.082,0.695,1.082,0.927c0,0.155,0,0.155-0.155,0.155C354.295,385.568,353.445,385.568,352.75,385.491"/>
	<path fill="#004990" d="M358.005,385.259c0-0.309-0.386-0.541-0.85-0.541c-0.541,0-1.082,0.386-1.082,1.314
		c0,1.005,0.464,1.391,1.005,1.391c0.464,0,0.695-0.077,0.85-0.464C358.005,386.264,358.005,385.8,358.005,385.259 M356.923,387.732
		c-0.773,0-1.468-0.695-1.468-1.623c0-1.005,0.618-1.7,1.468-1.7c0.464,0,0.773,0.155,1.082,0.386c0-0.85,0-1.623,0-1.855
		c0-0.309-0.077-0.309-0.541-0.309v-0.077c0-0.077,0-0.077,0-0.077c0.618,0,0.927-0.077,1.005-0.077c0.077,0,0.077,0,0.077,0.077
		s0,0.541,0,1.777c0,1.314,0,2.473,0,2.859c0,0.232,0.077,0.232,0.309,0.309h0.232v0.077c0,0.077,0,0.077,0,0.077
		c-0.232,0-0.541,0.077-0.85,0.155c-0.077,0-0.155,0.077-0.155,0.077c-0.077,0-0.077,0-0.077-0.077c0-0.077,0-0.232,0-0.464
		C357.773,387.5,357.386,387.732,356.923,387.732"/>
	<path fill="#004990" d="M360.786,382.864c0,0.232-0.155,0.386-0.386,0.386s-0.386-0.155-0.386-0.386s0.155-0.386,0.386-0.386
		C360.632,382.477,360.786,382.709,360.786,382.864 M361.173,387.577L361.173,387.577c-0.232,0.077-0.464,0-0.773,0
		c-0.232,0-0.541,0-0.695,0c0,0,0,0,0-0.077v-0.077c0.386,0,0.464-0.077,0.464-0.309v-2.086c0-0.155,0-0.232-0.155-0.232h-0.232
		l-0.077-0.077c0-0.077,0-0.077,0.077-0.077c0.309,0,0.618-0.077,0.85-0.232c0.077,0,0.155,0.077,0.155,0.077
		c0,0.232-0.077,1.777-0.077,2.55c0,0.232,0,0.309,0.464,0.309C361.173,387.423,361.173,387.5,361.173,387.577"/>
	<path fill="#004990" d="M363.955,385.259c-0.077,0-0.232-0.077-0.232-0.232c-0.077-0.232-0.232-0.309-0.541-0.309
		c-0.541,0-1.005,0.386-1.005,1.314c0,1.005,0.541,1.391,1.082,1.391c0.386,0,0.695-0.155,0.85-0.464c0,0,0,0,0.077,0
		s0.155,0.077,0.155,0.155c-0.232,0.464-0.695,0.695-1.159,0.695c-0.773,0-1.623-0.541-1.623-1.468c0-1.082,0.773-1.777,1.7-1.777
		c0.541,0,0.927,0.232,0.927,0.541C364.186,385.182,364.109,385.259,363.955,385.259"/>
	<path fill="#004990" d="M366.582,385.8c-0.927,0.309-1.159,0.695-1.159,1.082c0,0.309,0.155,0.464,0.386,0.464
		s0.386-0.077,0.695-0.464C366.582,386.573,366.582,386.186,366.582,385.8 M366.041,384.718c-0.386,0-0.541,0.077-0.618,0.386
		c-0.077,0.155-0.155,0.155-0.232,0.155c-0.155,0-0.232-0.077-0.232-0.232c0-0.232,0.232-0.618,1.159-0.618
		c0.85,0,1.082,0.232,1.082,0.85c0,0.309-0.077,1.005-0.077,1.7c0,0.155,0,0.309,0.232,0.309c0.155,0,0.232-0.077,0.309-0.155
		c0,0,0,0,0.077,0l0.077,0.077c0,0.077-0.155,0.464-0.618,0.464c-0.386,0-0.541-0.155-0.541-0.618
		c-0.232,0.386-0.618,0.618-1.005,0.618c-0.464,0-0.773-0.232-0.773-0.618c0-0.464,0.386-1.005,1.777-1.391v-0.386
		C366.582,384.95,366.582,384.718,366.041,384.718"/>
	<path fill="#004990" d="M368.205,382.632l-0.077-0.077c0-0.077,0-0.077,0.077-0.077c0.618,0,0.927-0.077,1.005-0.077
		c0.077,0,0.077,0,0.077,0.077s-0.077,1.545-0.077,4.714c0,0.232,0.077,0.309,0.464,0.309v0.077v0.077c-0.232,0-0.464,0-0.773,0
		c-0.232,0-0.541,0-0.773,0c0,0,0,0,0-0.077V387.5c0.464,0,0.464-0.155,0.464-0.309c0-0.927,0-3.709,0-4.173
		C368.745,382.709,368.668,382.632,368.205,382.632"/>
	<path fill="#004990" d="M372.455,384.795h-0.232c0,0,0,0,0-0.077v-0.077c0.386-0.077,0.541-0.464,0.695-0.927c0,0,0,0,0.077,0
		s0.155,0,0.155,0.077c0,0.155,0,0.618,0,0.85c0.232,0,0.541,0,0.85,0c0,0,0.077,0.077,0.077,0.155s0,0.077-0.077,0.077
		c-0.232,0-0.541,0-0.85,0c0,0.309,0,0.695,0,1.005c0,0.464,0,0.927,0,1.159s0.155,0.309,0.386,0.309s0.386-0.077,0.464-0.232
		c0-0.077,0-0.077,0.077-0.077c0,0,0.077,0,0.077,0.077c0,0.309-0.309,0.541-0.773,0.541c-0.464,0-0.773-0.232-0.773-0.773
		c0-0.464,0-1.7,0-2.009C372.455,384.873,372.455,384.873,372.455,384.795"/>
	<path fill="#004990" d="M376.241,385.336c0.232,0,0.309,0,0.309-0.232s-0.155-0.464-0.618-0.464c-0.386,0-0.773,0.309-0.85,0.773
		C375.314,385.414,375.777,385.414,376.241,385.336 M375.082,385.491c0,0.077-0.077,0.232-0.077,0.386
		c0,0.927,0.541,1.391,1.159,1.391c0.309,0,0.618-0.077,0.773-0.309c0,0,0,0,0.077,0c0.077,0,0.155,0.077,0.077,0.155
		c-0.155,0.309-0.464,0.618-1.082,0.618c-0.85,0-1.545-0.464-1.545-1.545c0-0.927,0.618-1.777,1.623-1.777
		c0.773,0,1.082,0.695,1.082,0.927c0,0.155,0,0.155-0.155,0.155C376.55,385.568,375.7,385.568,375.082,385.491"/>
	<path fill="#004990" d="M379.486,385.8c-0.927,0.309-1.159,0.695-1.159,1.082c0,0.309,0.155,0.464,0.386,0.464
		c0.232,0,0.386-0.077,0.695-0.464C379.486,386.573,379.486,386.186,379.486,385.8 M378.945,384.718
		c-0.386,0-0.541,0.077-0.618,0.386c-0.077,0.155-0.155,0.155-0.232,0.155c-0.155,0-0.232-0.077-0.232-0.232
		c0-0.232,0.232-0.618,1.159-0.618c0.85,0,1.082,0.232,1.082,0.85c0,0.309-0.077,1.005-0.077,1.7c0,0.155,0,0.309,0.232,0.309
		c0.155,0,0.232-0.077,0.309-0.155c0,0,0,0,0.077,0l0.077,0.077c0,0.077-0.155,0.464-0.618,0.464c-0.386,0-0.541-0.155-0.541-0.618
		c-0.232,0.386-0.618,0.618-1.005,0.618c-0.464,0-0.773-0.232-0.773-0.618c0-0.464,0.386-1.005,1.777-1.391v-0.386
		C379.486,384.95,379.409,384.718,378.945,384.718"/>
	<path fill="#004990" d="M385.205,384.486c0.464,0,0.927,0.309,0.927,0.85s-0.077,1.236-0.077,1.623c0,0.309,0,0.464,0.464,0.464
		v0.077v0.077c-0.155,0-0.386,0-0.695,0c-0.309,0-0.541,0-0.773,0c0,0,0,0,0-0.077c0-0.077,0-0.077,0-0.077
		c0.464,0,0.464-0.155,0.464-0.386c0-0.695,0-1.314,0-1.777c0-0.309-0.232-0.541-0.618-0.541s-0.773,0.309-0.773,0.85
		c0,0.386,0,1.005,0,1.314c0,0.386,0,0.541,0.386,0.541v0.077v0.077c-0.232,0-0.464,0-0.695,0c-0.309,0-0.541,0-0.773,0
		c0,0,0,0,0-0.077v-0.077c0.464,0,0.464-0.155,0.464-0.309c0-0.695,0-1.236,0-1.623c0-0.464-0.155-0.695-0.541-0.695
		c-0.386,0-0.85,0.309-0.85,1.159v1.236c0,0.232,0,0.309,0.464,0.309v0.077v0.077c-0.309,0-0.541,0-0.695,0
		c-0.309,0-0.541,0-0.695,0c0,0,0,0,0-0.077c0-0.077,0-0.077,0-0.077c0.386,0,0.464-0.077,0.464-0.386c0-0.85,0-1.623,0-2.086
		c0-0.155,0-0.232-0.155-0.232h-0.232v-0.077c0-0.077,0-0.077,0-0.077c0.309-0.077,0.541-0.077,0.85-0.232
		c0.077,0,0.077,0.077,0.077,0.077c0,0.232,0,0.464,0,0.695c0.155-0.464,0.618-0.773,1.082-0.773c0.386,0,0.695,0.232,0.85,0.695
		C384.277,384.718,384.741,384.486,385.205,384.486"/>
	<path fill="#004990" d="M225.327,397.159c-0.077,0-0.232-0.077-0.232-0.232c-0.077-0.232-0.232-0.309-0.541-0.309
		c-0.541,0-1.005,0.386-1.005,1.314c0,1.005,0.541,1.391,1.082,1.391c0.386,0,0.695-0.155,0.85-0.464c0,0,0,0,0.077,0
		c0.077,0,0.155,0.077,0.155,0.155c-0.232,0.464-0.695,0.695-1.159,0.695c-0.773,0-1.623-0.541-1.623-1.468
		c0-1.082,0.773-1.777,1.7-1.777c0.541,0,0.927,0.232,0.927,0.541C225.559,397.082,225.405,397.159,225.327,397.159"/>
	<path fill="#004990" d="M226.718,398.009c0,0.927,0.386,1.391,1.005,1.391c0.618,0,1.005-0.541,1.005-1.391
		c0-0.85-0.386-1.391-1.005-1.391C227.105,396.541,226.718,397.082,226.718,398.009 M229.345,398.009
		c0,0.927-0.773,1.623-1.623,1.623c-0.927,0-1.623-0.695-1.623-1.623c0-0.927,0.773-1.623,1.623-1.623
		S229.345,397.082,229.345,398.009"/>
	<path fill="#004990" d="M233.827,396.386c0.464,0,0.927,0.309,0.927,0.85s-0.077,1.236-0.077,1.623c0,0.309,0,0.464,0.464,0.464
		v0.077v0.077c-0.155,0-0.386,0-0.695,0c-0.309,0-0.541,0-0.773,0c0,0,0,0,0-0.077c0-0.077,0-0.077,0-0.077
		c0.464,0,0.464-0.155,0.464-0.386c0-0.695,0-1.314,0-1.777c0-0.309-0.232-0.541-0.618-0.541c-0.386,0-0.773,0.309-0.773,0.85
		c0,0.386,0,1.005,0,1.314c0,0.386,0,0.541,0.386,0.541v0.077v0.077c-0.232,0-0.464,0-0.695,0c-0.309,0-0.541,0-0.773,0
		c0,0,0,0,0-0.077v-0.077c0.464,0,0.464-0.155,0.464-0.309c0-0.695,0-1.236,0-1.623c0-0.464-0.155-0.695-0.541-0.695
		s-0.85,0.309-0.85,1.159v1.236c0,0.232,0,0.309,0.464,0.309v0.077v0.077c-0.309,0-0.541,0-0.695,0c-0.309,0-0.541,0-0.695,0
		c0,0,0,0,0-0.077c0-0.077,0-0.077,0-0.077c0.386,0,0.464-0.077,0.464-0.386c0-0.85,0-1.623,0-2.086c0-0.155,0-0.232-0.155-0.232
		h-0.232v-0.077c0-0.077,0-0.077,0-0.077c0.309-0.077,0.541-0.077,0.85-0.232c0.077,0,0.077,0.077,0.077,0.077
		c0,0.232,0,0.464,0,0.695c0.155-0.464,0.618-0.773,1.082-0.773c0.386,0,0.695,0.232,0.85,0.695
		C232.9,396.618,233.441,396.386,233.827,396.386"/>
	<path fill="#004990" d="M239.855,396.386c0.464,0,0.927,0.309,0.927,0.85s-0.077,1.236-0.077,1.623c0,0.309,0,0.464,0.464,0.464
		v0.077v0.077c-0.155,0-0.386,0-0.695,0s-0.541,0-0.773,0c0,0,0,0,0-0.077c0-0.077,0-0.077,0-0.077c0.464,0,0.464-0.155,0.464-0.386
		c0-0.695,0-1.314,0-1.777c0-0.309-0.232-0.541-0.618-0.541c-0.386,0-0.773,0.309-0.773,0.85c0,0.386,0,1.005,0,1.314
		c0,0.386,0,0.541,0.386,0.541v0.077v0.077c-0.232,0-0.464,0-0.695,0c-0.309,0-0.541,0-0.773,0c0,0,0,0,0-0.077v-0.077
		c0.464,0,0.464-0.155,0.464-0.309c0-0.695,0-1.236,0-1.623c0-0.464-0.155-0.695-0.541-0.695c-0.386,0-0.85,0.309-0.85,1.159v1.236
		c0,0.232,0,0.309,0.464,0.309v0.077v0.077c-0.309,0-0.541,0-0.695,0c-0.309,0-0.541,0-0.695,0c0,0,0,0,0-0.077
		c0-0.077,0-0.077,0-0.077c0.386,0,0.464-0.077,0.464-0.386c0-0.85,0-1.623,0-2.086c0-0.155,0-0.232-0.155-0.232h-0.232v-0.077
		c0-0.077,0-0.077,0-0.077c0.309-0.077,0.541-0.077,0.85-0.232c0.077,0,0.077,0.077,0.077,0.077c0,0.232,0,0.464,0,0.695
		c0.155-0.464,0.618-0.773,1.082-0.773c0.386,0,0.695,0.232,0.85,0.695C238.927,396.618,239.391,396.386,239.855,396.386"/>
	<path fill="#004990" d="M242.945,394.764c0,0.232-0.155,0.386-0.386,0.386s-0.386-0.155-0.386-0.386s0.155-0.386,0.386-0.386
		C242.791,394.377,242.945,394.609,242.945,394.764 M243.255,399.477L243.255,399.477c-0.232,0.077-0.464,0-0.773,0
		c-0.232,0-0.541,0-0.695,0c0,0,0,0,0-0.077v-0.077c0.386,0,0.464-0.077,0.464-0.309v-2.086c0-0.155,0-0.232-0.155-0.232h-0.232
		l-0.077-0.077c0-0.077,0-0.077,0.077-0.077c0.309,0,0.618-0.077,0.85-0.232c0.077,0,0.155,0.077,0.155,0.077
		c0,0.232-0.077,1.777-0.077,2.55c0,0.232,0,0.309,0.464,0.309C243.255,399.4,243.255,399.4,243.255,399.477"/>
	<path fill="#004990" d="M243.95,396.695h-0.232c0,0,0,0,0-0.077v-0.077c0.386-0.077,0.541-0.464,0.695-0.927c0,0,0,0,0.077,0
		c0.077,0,0.155,0,0.155,0.077c0,0.155,0,0.618,0,0.85c0.232,0,0.541,0,0.85,0c0,0,0.077,0.077,0.077,0.155s0,0.077-0.077,0.077
		c-0.232,0-0.541,0-0.85,0c0,0.309,0,0.695,0,1.005c0,0.464,0,0.927,0,1.159s0.155,0.309,0.386,0.309s0.386-0.077,0.464-0.232
		c0-0.077,0-0.077,0.077-0.077c0,0,0.077,0,0.077,0.077c0,0.309-0.309,0.541-0.773,0.541c-0.464,0-0.773-0.232-0.773-0.773
		c0-0.464,0-1.7,0-2.009C244.027,396.773,243.95,396.773,243.95,396.695"/>
	<path fill="#004990" d="M246.345,396.695h-0.232c0,0,0,0,0-0.077v-0.077c0.386-0.077,0.541-0.464,0.695-0.927c0,0,0,0,0.077,0
		c0.077,0,0.155,0,0.155,0.077c0,0.155,0,0.618,0,0.85c0.232,0,0.541,0,0.85,0c0,0,0.077,0.077,0.077,0.155s0,0.077-0.077,0.077
		c-0.232,0-0.541,0-0.85,0c0,0.309,0,0.695,0,1.005c0,0.464,0,0.927,0,1.159s0.155,0.309,0.386,0.309s0.386-0.077,0.464-0.232
		c0-0.077,0-0.077,0.077-0.077c0,0,0.077,0,0.077,0.077c0,0.309-0.309,0.541-0.773,0.541s-0.773-0.232-0.773-0.773
		c0-0.464,0-1.7,0-2.009C246.345,396.773,246.345,396.773,246.345,396.695"/>
	<path fill="#004990" d="M250.055,397.314c0.232,0,0.309,0,0.309-0.232s-0.155-0.464-0.618-0.464c-0.386,0-0.773,0.309-0.85,0.773
		C249.127,397.314,249.591,397.314,250.055,397.314 M248.895,397.468c0,0.077-0.077,0.232-0.077,0.386
		c0,0.927,0.541,1.391,1.159,1.391c0.309,0,0.618-0.077,0.773-0.309c0,0,0,0,0.077,0c0.077,0,0.155,0.077,0.077,0.155
		c-0.155,0.309-0.464,0.618-1.082,0.618c-0.85,0-1.545-0.464-1.545-1.545c0-0.927,0.618-1.777,1.623-1.777
		c0.773,0,1.082,0.695,1.082,0.927c0,0.155,0,0.155-0.155,0.155C250.364,397.468,249.591,397.468,248.895,397.468"/>
	<path fill="#004990" d="M254.073,397.159c0-0.309-0.386-0.541-0.85-0.541c-0.541,0-1.082,0.386-1.082,1.314
		c0,1.005,0.464,1.391,1.005,1.391c0.464,0,0.695-0.077,0.85-0.464C254.15,398.164,254.073,397.7,254.073,397.159 M252.991,399.632
		c-0.773,0-1.468-0.695-1.468-1.623c0-1.005,0.618-1.7,1.468-1.7c0.464,0,0.773,0.155,1.082,0.386c0-0.85,0-1.623,0-1.855
		c0-0.309-0.077-0.309-0.541-0.309v-0.077c0-0.077,0-0.077,0-0.077c0.618,0,0.927-0.077,1.005-0.077c0.077,0,0.077,0,0.077,0.077
		s0,0.541,0,1.777c0,1.314,0,2.473,0,2.859c0,0.232,0.077,0.232,0.309,0.309h0.232v0.077c0,0.077,0,0.077,0,0.077
		c-0.232,0-0.541,0.077-0.85,0.155c-0.077,0-0.155,0.077-0.155,0.077c-0.077,0-0.077,0-0.077-0.077s0-0.232,0-0.464
		C253.841,399.4,253.532,399.632,252.991,399.632"/>
	<path fill="#004990" d="M257.782,396.695h-0.232c0,0,0,0,0-0.077v-0.077c0.386-0.077,0.541-0.464,0.695-0.927c0,0,0,0,0.077,0
		c0.077,0,0.155,0,0.155,0.077c0,0.155,0,0.618,0,0.85c0.232,0,0.541,0,0.85,0c0,0,0.077,0.077,0.077,0.155s0,0.077-0.077,0.077
		c-0.232,0-0.541,0-0.85,0c0,0.309,0,0.695,0,1.005c0,0.464,0,0.927,0,1.159s0.155,0.309,0.386,0.309s0.386-0.077,0.464-0.232
		c0-0.077,0-0.077,0.077-0.077c0,0,0.077,0,0.077,0.077c0,0.309-0.309,0.541-0.773,0.541c-0.464,0-0.773-0.232-0.773-0.773
		c0-0.464,0-1.7,0-2.009C257.782,396.773,257.782,396.773,257.782,396.695"/>
	<path fill="#004990" d="M260.332,398.009c0,0.927,0.386,1.391,1.005,1.391c0.618,0,1.005-0.541,1.005-1.391
		c0-0.85-0.386-1.391-1.005-1.391C260.718,396.541,260.332,397.082,260.332,398.009 M262.959,398.009
		c0,0.927-0.773,1.623-1.623,1.623c-0.927,0-1.623-0.695-1.623-1.623c0-0.927,0.773-1.623,1.623-1.623
		C262.264,396.386,262.959,397.082,262.959,398.009"/>
	<path fill="#004990" d="M269.295,396.386c0.464,0,0.927,0.309,0.927,0.85s-0.077,1.236-0.077,1.623c0,0.309,0,0.464,0.464,0.464
		v0.077v0.077c-0.155,0-0.386,0-0.695,0c-0.309,0-0.541,0-0.773,0c0,0,0,0,0-0.077c0-0.077,0-0.077,0-0.077
		c0.464,0,0.464-0.155,0.464-0.386c0-0.695,0-1.314,0-1.777c0-0.309-0.232-0.541-0.618-0.541s-0.773,0.309-0.773,0.85
		c0,0.386,0,1.005,0,1.314c0,0.386,0,0.541,0.386,0.541v0.077v0.077c-0.232,0-0.464,0-0.695,0c-0.309,0-0.541,0-0.773,0
		c0,0,0,0,0-0.077v-0.077c0.464,0,0.464-0.155,0.464-0.309c0-0.695,0-1.236,0-1.623c0-0.464-0.155-0.695-0.541-0.695
		c-0.386,0-0.85,0.309-0.85,1.159v1.236c0,0.232,0,0.309,0.464,0.309v0.077v0.077c-0.309,0-0.541,0-0.695,0
		c-0.309,0-0.541,0-0.695,0c0,0,0,0,0-0.077c0-0.077,0-0.077,0-0.077c0.386,0,0.464-0.077,0.464-0.386c0-0.85,0-1.623,0-2.086
		c0-0.155,0-0.232-0.155-0.232h-0.232v-0.077c0-0.077,0-0.077,0-0.077c0.309-0.077,0.541-0.077,0.85-0.232
		c0.077,0,0.077,0.077,0.077,0.077c0,0.232,0,0.464,0,0.695c0.155-0.464,0.618-0.773,1.082-0.773c0.386,0,0.695,0.232,0.85,0.695
		C268.368,396.618,268.909,396.386,269.295,396.386"/>
	<path fill="#004990" d="M273.005,397.7c-0.927,0.309-1.159,0.695-1.159,1.082c0,0.309,0.155,0.464,0.386,0.464
		s0.386-0.077,0.695-0.464C273.005,398.473,273.005,398.086,273.005,397.7 M272.464,396.618c-0.386,0-0.541,0.077-0.618,0.386
		c-0.077,0.155-0.155,0.155-0.232,0.155s-0.232-0.077-0.232-0.232c0-0.232,0.232-0.618,1.159-0.618c0.85,0,1.082,0.232,1.082,0.85
		c0,0.309-0.077,1.005-0.077,1.7c0,0.155,0,0.309,0.232,0.309c0.155,0,0.232-0.077,0.309-0.155c0,0,0,0,0.077,0l0.077,0.077
		c0,0.077-0.155,0.464-0.618,0.464c-0.386,0-0.541-0.155-0.541-0.618c-0.232,0.386-0.618,0.618-1.005,0.618
		c-0.464,0-0.773-0.232-0.773-0.618c0-0.464,0.386-1.005,1.777-1.391v-0.386C273.005,396.85,273.005,396.618,272.464,396.618"/>
	<path fill="#004990" d="M274.627,394.532l-0.077-0.077c0-0.077,0-0.077,0.077-0.077c0.618,0,0.927-0.077,1.005-0.077
		s0.077,0,0.077,0.077c0,0.155-0.077,2.395-0.077,3.786c0.773-0.618,1.159-1.005,1.159-1.159c0-0.155-0.077-0.232-0.309-0.232
		v-0.077v-0.077c0.155,0,0.386,0,0.618,0s0.541,0,0.618,0c0,0,0,0,0,0.077v0.077c-0.232,0.077-0.386,0.155-0.618,0.386
		c-0.155,0.155-0.618,0.541-0.695,0.695c0.695,0.927,1.236,1.545,1.391,1.623c0.077,0,0.077,0,0.155,0v0.077
		c0,0,0,0.077-0.077,0.077c-0.232,0-0.464,0-0.695,0c-0.155,0-0.232-0.077-1.314-1.468c-0.077,0.077-0.155,0.155-0.232,0.232
		c0,0.464,0,0.695,0,0.85c0,0.155,0.077,0.232,0.386,0.232v0.077v0.077c-0.232,0-0.541,0-0.695,0c-0.232,0-0.386,0-0.618,0
		c0,0,0,0,0-0.077v-0.077c0.386-0.077,0.386-0.155,0.386-0.386c0-0.927,0-3.632,0-4.095
		C275.091,394.609,275.014,394.532,274.627,394.532"/>
	<path fill="#004990" d="M279.573,394.764c0,0.232-0.155,0.386-0.386,0.386s-0.386-0.155-0.386-0.386s0.155-0.386,0.386-0.386
		C279.418,394.377,279.573,394.609,279.573,394.764 M279.959,399.477L279.959,399.477c-0.232,0.077-0.464,0-0.773,0
		c-0.232,0-0.541,0-0.695,0c0,0,0,0,0-0.077v-0.077c0.386,0,0.464-0.077,0.464-0.309v-2.086c0-0.155,0-0.232-0.155-0.232h-0.232
		l-0.077-0.077c0-0.077,0-0.077,0.077-0.077c0.309,0,0.618-0.077,0.85-0.232c0.077,0,0.155,0.077,0.155,0.077
		c0,0.232-0.077,1.777-0.077,2.55c0,0.232,0,0.309,0.464,0.309C279.959,399.4,279.959,399.4,279.959,399.477"/>
	<path fill="#004990" d="M282.664,396.386c0.464,0,1.005,0.309,1.005,0.927c0,0.464-0.077,1.236-0.077,1.545
		c0,0.464,0.077,0.541,0.464,0.541v0.077v0.077c-0.155,0-0.386,0-0.695,0s-0.541,0-0.773,0c0,0,0,0,0-0.077c0-0.077,0-0.077,0-0.077
		c0.386,0,0.464-0.155,0.464-0.386c0-0.386,0-1.236,0-1.7c0-0.386-0.309-0.618-0.618-0.618c-0.386,0-0.927,0.155-0.927,1.236
		c0,0.309,0,1.005,0,1.159c0,0.232,0.077,0.309,0.464,0.309v0.077v0.077c-0.232,0-0.541,0-0.695,0c-0.309,0-0.541,0-0.773,0
		c0,0,0,0,0-0.077c0-0.077,0-0.077,0-0.077c0.464,0,0.464-0.155,0.464-0.309c0-0.927,0-1.623,0-2.086
		c0-0.155-0.077-0.232-0.155-0.232H280.5v-0.077c0-0.077,0-0.077,0-0.077c0.309,0,0.541-0.077,0.927-0.232
		c0.077,0,0.077,0.077,0.077,0.077c0,0.232,0,0.386,0,0.618C281.659,396.618,282.2,396.386,282.664,396.386"/>
	<path fill="#004990" d="M285.291,397.468c0,0.618,0.309,1.005,0.618,1.005s0.618-0.386,0.618-1.005
		c0-0.541-0.232-0.927-0.618-0.927C285.6,396.541,285.291,396.927,285.291,397.468 M287.068,397.468
		c0,0.773-0.386,1.159-1.314,1.159c-0.541,0-0.773,0.232-0.773,0.386c0,0.155,0.077,0.232,0.464,0.232c0.386,0,0.618,0,1.082,0
		c0.85,0,1.159,0.541,1.159,1.082c0,0.695-0.541,1.391-1.623,1.391c-1.236,0-1.7-0.541-1.7-1.082c0-0.386,0.232-0.618,0.618-0.618
		c0.077,0,0.155,0,0.232,0.077c-0.232,0.155-0.309,0.309-0.309,0.541c0,0.464,0.386,0.85,1.159,0.85s1.159-0.464,1.159-0.927
		c0-0.386-0.155-0.773-0.695-0.773c-0.309,0-0.618,0-0.85,0c-0.309,0-0.927,0-0.927-0.541c0-0.309,0.309-0.618,0.773-0.695
		c-0.464-0.155-0.695-0.541-0.695-1.082c0-0.695,0.541-1.159,1.159-1.159c0.464,0,0.773,0.155,0.927,0.464
		c0.155-0.309,0.464-0.464,0.695-0.464c0.309,0,0.464,0.155,0.464,0.386s-0.155,0.309-0.232,0.309c-0.155,0-0.232-0.077-0.232-0.155
		c0-0.077-0.077-0.155-0.232-0.155s-0.309,0.077-0.309,0.309C287.068,397.159,287.068,397.314,287.068,397.468"/>
	<path fill="#004990" d="M291.859,397.7c-0.927,0.309-1.159,0.695-1.159,1.082c0,0.309,0.155,0.464,0.386,0.464
		s0.386-0.077,0.695-0.464C291.859,398.473,291.859,398.086,291.859,397.7 M291.318,396.618c-0.386,0-0.541,0.077-0.618,0.386
		c-0.077,0.155-0.155,0.155-0.232,0.155c-0.155,0-0.232-0.077-0.232-0.232c0-0.232,0.232-0.618,1.159-0.618
		c0.85,0,1.082,0.232,1.082,0.85c0,0.309-0.077,1.005-0.077,1.7c0,0.155,0,0.309,0.232,0.309c0.155,0,0.232-0.077,0.309-0.155
		c0,0,0,0,0.077,0l0.077,0.077c0,0.077-0.155,0.464-0.618,0.464c-0.386,0-0.541-0.155-0.541-0.618
		c-0.232,0.386-0.618,0.618-1.005,0.618c-0.464,0-0.773-0.232-0.773-0.618c0-0.464,0.386-1.005,1.777-1.391v-0.386
		C291.936,396.85,291.859,396.618,291.318,396.618"/>
	<path fill="#004990" d="M295.105,394.532l-0.077-0.077c0-0.077,0-0.077,0.077-0.077c0.618,0,1.005-0.077,1.005-0.077
		c0.077,0,0.077,0,0.077,0.077c0,0.232-0.077,2.009-0.077,2.782c0.155-0.464,0.695-0.695,1.159-0.695
		c0.464,0,0.927,0.309,0.927,0.927c0,0.464-0.077,1.236-0.077,1.545c0,0.386,0.077,0.541,0.464,0.541v0.077v0.077
		c-0.232,0-0.464-0.077-0.85-0.077c-0.155,0-0.464,0-0.695,0c0,0,0,0,0-0.077V399.4c0.309,0,0.464-0.155,0.464-0.386
		c0-0.464,0-1.236,0-1.623c0-0.386-0.309-0.618-0.618-0.618c-0.464,0-0.927,0.309-0.927,1.236c0,0.386,0,1.005,0,1.159
		c0,0.232,0,0.309,0.464,0.309v0.077v0.077c-0.309,0-0.464,0-0.695,0c-0.309,0-0.618,0-0.773,0c0,0,0,0,0-0.077s0-0.077,0-0.077
		c0.386,0,0.464-0.077,0.464-0.309c0-0.695,0-3.709,0-4.173C295.645,394.609,295.568,394.532,295.105,394.532"/>
	<path fill="#004990" d="M300.977,397.314c0.232,0,0.309,0,0.309-0.232s-0.155-0.464-0.618-0.464c-0.386,0-0.773,0.309-0.85,0.773
		C300.05,397.314,300.436,397.314,300.977,397.314 M299.741,397.468c0,0.077-0.077,0.232-0.077,0.386
		c0,0.927,0.541,1.391,1.159,1.391c0.309,0,0.618-0.077,0.773-0.309c0,0,0,0,0.077,0c0.077,0,0.155,0.077,0.077,0.155
		c-0.155,0.309-0.464,0.618-1.082,0.618c-0.85,0-1.545-0.464-1.545-1.545c0-0.927,0.618-1.777,1.623-1.777
		c0.773,0,1.082,0.695,1.082,0.927c0,0.155,0,0.155-0.155,0.155C301.286,397.468,300.436,397.468,299.741,397.468"/>
	<path fill="#004990" d="M304.145,397.7c-0.927,0.309-1.159,0.695-1.159,1.082c0,0.309,0.155,0.464,0.386,0.464
		c0.232,0,0.386-0.077,0.695-0.464C304.145,398.473,304.145,398.086,304.145,397.7 M303.605,396.618
		c-0.386,0-0.541,0.077-0.618,0.386c-0.077,0.155-0.155,0.155-0.232,0.155s-0.232-0.077-0.232-0.232
		c0-0.232,0.232-0.618,1.159-0.618c0.85,0,1.082,0.232,1.082,0.85c0,0.309-0.077,1.005-0.077,1.7c0,0.155,0,0.309,0.232,0.309
		c0.155,0,0.232-0.077,0.309-0.155c0,0,0,0,0.077,0l0.077,0.077c0,0.077-0.155,0.464-0.618,0.464c-0.386,0-0.541-0.155-0.541-0.618
		c-0.232,0.386-0.618,0.618-1.005,0.618c-0.464,0-0.773-0.232-0.773-0.618c0-0.464,0.386-1.005,1.777-1.391v-0.386
		C304.223,396.85,304.145,396.618,303.605,396.618"/>
	<path fill="#004990" d="M305.768,394.532l-0.077-0.077c0-0.077,0-0.077,0.077-0.077c0.618,0,0.927-0.077,1.005-0.077
		s0.077,0,0.077,0.077s-0.077,1.545-0.077,4.714c0,0.232,0.077,0.309,0.464,0.309v0.077v0.077c-0.232,0-0.464,0-0.773,0
		c-0.232,0-0.541,0-0.773,0c0,0,0,0,0-0.077V399.4c0.464,0,0.464-0.155,0.464-0.309c0-0.927,0-3.709,0-4.173
		C306.309,394.609,306.232,394.532,305.768,394.532"/>
	<path fill="#004990" d="M308.086,396.695h-0.232c0,0,0,0,0-0.077v-0.077c0.386-0.077,0.541-0.464,0.695-0.927c0,0,0,0,0.077,0
		s0.155,0,0.155,0.077c0,0.155,0,0.618,0,0.85c0.232,0,0.541,0,0.85,0c0,0,0.077,0.077,0.077,0.155s0,0.077-0.077,0.077
		c-0.232,0-0.541,0-0.85,0c0,0.309,0,0.695,0,1.005c0,0.464,0,0.927,0,1.159s0.155,0.309,0.386,0.309s0.386-0.077,0.464-0.232
		c0-0.077,0-0.077,0.077-0.077c0,0,0.077,0,0.077,0.077c0,0.309-0.309,0.541-0.773,0.541c-0.464,0-0.773-0.232-0.773-0.773
		c0-0.464,0-1.7,0-2.009C308.086,396.773,308.086,396.773,308.086,396.695"/>
	<path fill="#004990" d="M310.095,394.532l-0.077-0.077c0-0.077,0-0.077,0.077-0.077c0.618,0,1.005-0.077,1.005-0.077
		c0.077,0,0.077,0,0.077,0.077c0,0.232-0.077,2.009-0.077,2.782c0.155-0.464,0.695-0.695,1.159-0.695
		c0.464,0,0.927,0.309,0.927,0.927c0,0.464-0.077,1.236-0.077,1.545c0,0.386,0.077,0.541,0.464,0.541v0.077v0.077
		c-0.232,0-0.464-0.077-0.85-0.077c-0.155,0-0.464,0-0.695,0c0,0,0,0,0-0.077V399.4c0.309,0,0.464-0.155,0.464-0.386
		c0-0.464,0-1.236,0-1.623c0-0.386-0.309-0.618-0.618-0.618c-0.464,0-0.927,0.309-0.927,1.236c0,0.386,0,1.005,0,1.159
		c0,0.232,0,0.309,0.464,0.309v0.077v0.077c-0.309,0-0.464,0-0.695,0c-0.309,0-0.618,0-0.773,0c0,0,0,0,0-0.077s0-0.077,0-0.077
		c0.386,0,0.464-0.077,0.464-0.309c0-0.695,0-3.709,0-4.173C310.559,394.609,310.482,394.532,310.095,394.532"/>
	<path fill="#004990" d="M314.732,398.086c-0.309-0.695-0.618-1.314-0.773-1.391c-0.077,0-0.077,0-0.155,0v-0.077v-0.077
		c0.077,0,0.309,0,0.695,0c0.309,0,0.541,0,0.695,0c0,0,0,0,0,0.077v0.077c-0.232,0-0.309,0.077-0.309,0.232v0.077
		c0.155,0.464,0.618,1.391,0.773,1.855c0.155-0.386,0.695-1.623,0.695-1.932c0-0.155,0-0.232-0.309-0.232v-0.077v-0.077
		c0.077,0,0.309,0,0.464,0c0.309,0,0.541,0,0.618,0c0,0,0,0,0,0.077v0.077c-0.232,0.077-0.309,0.155-0.386,0.309
		c0,0.077-0.155,0.309-0.309,0.618c-0.386,0.773-1.005,2.241-1.468,3.4c-0.232,0.618-0.541,0.85-0.695,0.85
		s-0.232-0.077-0.232-0.309c0-0.309,0.541-0.464,0.773-0.85c0.232-0.309,0.386-0.927,0.541-1.159
		C315.35,399.4,315.118,398.782,314.732,398.086"/>
	<path fill="#004990" d="M321.918,397.159c0-0.309-0.386-0.541-0.85-0.541c-0.541,0-1.082,0.386-1.082,1.314
		c0,1.005,0.464,1.391,1.005,1.391c0.464,0,0.695-0.077,0.85-0.464C321.918,398.164,321.918,397.7,321.918,397.159 M320.836,399.632
		c-0.773,0-1.468-0.695-1.468-1.623c0-1.005,0.618-1.7,1.468-1.7c0.464,0,0.773,0.155,1.082,0.386c0-0.85,0-1.623,0-1.855
		c0-0.309-0.077-0.309-0.541-0.309v-0.077c0-0.077,0-0.077,0-0.077c0.618,0,0.927-0.077,1.005-0.077s0.077,0,0.077,0.077
		s0,0.541,0,1.777c0,1.314,0,2.473,0,2.859c0,0.232,0.077,0.232,0.309,0.309H323v0.077c0,0.077,0,0.077,0,0.077
		c-0.232,0-0.541,0.077-0.85,0.155c-0.077,0-0.155,0.077-0.155,0.077c-0.077,0-0.077,0-0.077-0.077s0-0.232,0-0.464
		C321.609,399.4,321.3,399.632,320.836,399.632"/>
	<path fill="#004990" d="M324.7,394.764c0,0.232-0.155,0.386-0.386,0.386c-0.232,0-0.386-0.155-0.386-0.386s0.155-0.386,0.386-0.386
		C324.545,394.377,324.7,394.609,324.7,394.764 M325.009,399.477L325.009,399.477c-0.232,0.077-0.464,0-0.773,0
		c-0.232,0-0.541,0-0.695,0c0,0,0,0,0-0.077v-0.077c0.386,0,0.464-0.077,0.464-0.309v-2.086c0-0.155,0-0.232-0.155-0.232h-0.232
		l-0.077-0.077c0-0.077,0-0.077,0.077-0.077c0.309,0,0.618-0.077,0.85-0.232c0.077,0,0.155,0.077,0.155,0.077
		c0,0.232-0.077,1.777-0.077,2.55c0,0.232,0,0.309,0.464,0.309C325.009,399.4,325.009,399.4,325.009,399.477"/>
	<path fill="#004990" d="M325.627,396.773l-0.077-0.077c0-0.077,0-0.077,0.077-0.077c0.309,0,0.386,0,0.386-0.232v-0.773
		c0-0.85,0.541-1.159,1.236-1.159c0.464,0,0.85,0.155,0.85,0.464c0,0.155-0.155,0.232-0.309,0.232c-0.077,0-0.155-0.077-0.232-0.232
		c-0.077-0.155-0.155-0.309-0.464-0.309c-0.541,0-0.618,0.464-0.618,1.005c0,0.464,0,0.695,0,1.005c0.232,0,0.541,0,0.773,0
		l0.077,0.077c0,0.077,0,0.077-0.077,0.077h-0.773c0,0.618,0,1.777,0,2.241c0,0.232,0.077,0.386,0.541,0.386c0,0,0,0,0,0.077v0.077
		c-0.232,0-0.618,0-0.85,0s-0.541,0-0.695,0c0,0,0,0,0-0.077s0-0.077,0-0.077c0.386,0,0.386-0.155,0.386-0.386
		c0-0.927,0-1.777,0-2.241H325.627z"/>
	<path fill="#004990" d="M328.1,396.773l-0.077-0.077c0-0.077,0-0.077,0.077-0.077c0.309,0,0.386,0,0.386-0.232v-0.773
		c0-0.85,0.541-1.159,1.236-1.159c0.386,0,0.85,0.155,0.85,0.464c0,0.155-0.155,0.232-0.309,0.232c-0.077,0-0.155-0.077-0.232-0.232
		c-0.077-0.155-0.155-0.309-0.464-0.309c-0.541,0-0.618,0.464-0.618,1.005c0,0.464,0,0.695,0,1.005c0.232,0,0.541,0,0.773,0
		l0.077,0.077c0,0.077,0,0.077-0.077,0.077h-0.773c0,0.618,0,1.777,0,2.241c0,0.232,0.077,0.386,0.541,0.386c0,0,0,0,0,0.077v0.077
		c-0.232,0-0.618,0-0.85,0c-0.232,0-0.541,0-0.695,0c0,0,0,0,0-0.077s0-0.077,0-0.077c0.386,0,0.386-0.155,0.386-0.386
		c0-0.927,0-1.777,0-2.241H328.1z"/>
	<path fill="#004990" d="M332.041,397.314c0.232,0,0.309,0,0.309-0.232s-0.155-0.464-0.618-0.464c-0.386,0-0.773,0.309-0.85,0.773
		C331.036,397.314,331.5,397.314,332.041,397.314 M330.805,397.468c0,0.077-0.077,0.232-0.077,0.386
		c0,0.927,0.541,1.391,1.159,1.391c0.309,0,0.618-0.077,0.773-0.309c0,0,0,0,0.077,0s0.155,0.077,0.077,0.155
		c-0.155,0.309-0.464,0.618-1.082,0.618c-0.85,0-1.545-0.464-1.545-1.545c0-0.927,0.618-1.777,1.623-1.777
		c0.773,0,1.082,0.695,1.082,0.927c0,0.155,0,0.155-0.155,0.155C332.35,397.468,331.5,397.468,330.805,397.468"/>
	<path fill="#004990" d="M335.286,396.386c0.386,0,0.464,0.155,0.464,0.386c0,0.155-0.077,0.309-0.232,0.309
		c-0.077,0-0.155,0-0.155-0.155c-0.077-0.077-0.155-0.155-0.309-0.155c-0.232,0-0.541,0.232-0.541,0.927c0,0.386,0,1.236,0,1.391
		c0,0.232,0.155,0.309,0.541,0.309v0.077v0.077c-0.309,0-0.541,0-0.773,0c-0.309,0-0.618,0-0.773,0c0,0,0,0,0-0.077s0-0.077,0-0.077
		c0.386,0,0.464-0.155,0.464-0.309c0-0.155,0-1.005,0-2.086c0-0.155-0.077-0.232-0.155-0.232h-0.309v-0.077c0-0.077,0-0.077,0-0.077
		c0.309,0,0.541-0.077,0.927-0.232c0.077,0,0.077,0.077,0.077,0.077c0,0.232,0,0.386,0,0.618
		C334.591,396.541,335.055,396.386,335.286,396.386"/>
	<path fill="#004990" d="M337.836,397.314c0.232,0,0.309,0,0.309-0.232s-0.155-0.464-0.618-0.464c-0.386,0-0.773,0.309-0.85,0.773
		C336.909,397.314,337.295,397.314,337.836,397.314 M336.6,397.468c0,0.077-0.077,0.232-0.077,0.386
		c0,0.927,0.541,1.391,1.159,1.391c0.309,0,0.618-0.077,0.773-0.309c0,0,0,0,0.077,0c0.077,0,0.155,0.077,0.077,0.155
		c-0.155,0.309-0.464,0.618-1.082,0.618c-0.85,0-1.545-0.464-1.545-1.545c0-0.927,0.618-1.777,1.623-1.777
		c0.773,0,1.082,0.695,1.082,0.927c0,0.155,0,0.155-0.155,0.155C338.145,397.468,337.295,397.468,336.6,397.468"/>
	<path fill="#004990" d="M341.391,396.386c0.464,0,1.005,0.309,1.005,0.927c0,0.464-0.077,1.236-0.077,1.545
		c0,0.464,0.077,0.541,0.464,0.541v0.077v0.077c-0.155,0-0.386,0-0.695,0s-0.541,0-0.773,0c0,0,0,0,0-0.077c0-0.077,0-0.077,0-0.077
		c0.386,0,0.464-0.155,0.464-0.386c0-0.386,0-1.236,0-1.7c0-0.386-0.309-0.618-0.618-0.618c-0.386,0-0.927,0.155-0.927,1.236
		c0,0.309,0,1.005,0,1.159c0,0.232,0.077,0.309,0.464,0.309v0.077v0.077c-0.232,0-0.541,0-0.695,0c-0.309,0-0.541,0-0.773,0
		c0,0,0,0,0-0.077c0-0.077,0-0.077,0-0.077c0.464,0,0.464-0.155,0.464-0.309c0-0.927,0-1.623,0-2.086
		c0-0.155-0.077-0.232-0.155-0.232h-0.309v-0.077c0-0.077,0-0.077,0-0.077c0.309,0,0.541-0.077,0.927-0.232
		c0.077,0,0.077,0.077,0.077,0.077c0,0.232,0,0.386,0,0.618C340.386,396.618,340.927,396.386,341.391,396.386"/>
	<path fill="#004990" d="M345.641,397.159c-0.077,0-0.232-0.077-0.232-0.232c-0.077-0.232-0.232-0.309-0.541-0.309
		c-0.541,0-1.005,0.386-1.005,1.314c0,1.005,0.541,1.391,1.082,1.391c0.386,0,0.695-0.155,0.85-0.464c0,0,0,0,0.077,0
		c0.077,0,0.155,0.077,0.155,0.155c-0.232,0.464-0.695,0.695-1.159,0.695c-0.773,0-1.623-0.541-1.623-1.468
		c0-1.082,0.773-1.777,1.7-1.777c0.541,0,0.927,0.232,0.927,0.541C345.873,397.082,345.718,397.159,345.641,397.159"/>
	<path fill="#004990" d="M348.191,397.314c0.232,0,0.309,0,0.309-0.232s-0.155-0.464-0.618-0.464c-0.386,0-0.773,0.309-0.85,0.773
		C347.264,397.314,347.727,397.314,348.191,397.314 M347.032,397.468c0,0.077-0.077,0.232-0.077,0.386
		c0,0.927,0.541,1.391,1.159,1.391c0.309,0,0.618-0.077,0.773-0.309c0,0,0,0,0.077,0c0.077,0,0.155,0.077,0.077,0.155
		c-0.155,0.309-0.464,0.618-1.082,0.618c-0.85,0-1.545-0.464-1.545-1.545c0-0.927,0.618-1.777,1.623-1.777
		c0.773,0,1.082,0.695,1.082,0.927c0,0.155,0,0.155-0.155,0.155C348.5,397.468,347.727,397.468,347.032,397.468"/>
	<path fill="#004990" d="M352.595,394.764c0,0.232-0.155,0.386-0.386,0.386s-0.386-0.155-0.386-0.386s0.155-0.386,0.386-0.386
		C352.441,394.377,352.595,394.609,352.595,394.764 M352.905,399.477L352.905,399.477c-0.232,0.077-0.464,0-0.773,0
		c-0.232,0-0.541,0-0.695,0c0,0,0,0,0-0.077v-0.077c0.386,0,0.464-0.077,0.464-0.309v-2.086c0-0.155,0-0.232-0.155-0.232h-0.232
		l-0.077-0.077c0-0.077,0-0.077,0.077-0.077c0.309,0,0.618-0.077,0.85-0.232c0.077,0,0.155,0.077,0.155,0.077
		c0,0.232-0.077,1.777-0.077,2.55c0,0.232,0,0.309,0.464,0.309C352.905,399.4,352.905,399.4,352.905,399.477"/>
	<path fill="#004990" d="M355.609,396.386c0.464,0,1.005,0.309,1.005,0.927c0,0.464-0.077,1.236-0.077,1.545
		c0,0.464,0.077,0.541,0.464,0.541v0.077v0.077c-0.155,0-0.386,0-0.695,0s-0.541,0-0.773,0c0,0,0,0,0-0.077c0-0.077,0-0.077,0-0.077
		c0.386,0,0.464-0.155,0.464-0.386c0-0.386,0-1.236,0-1.7c0-0.386-0.309-0.618-0.618-0.618c-0.386,0-0.927,0.155-0.927,1.236
		c0,0.309,0,1.005,0,1.159c0,0.232,0.077,0.309,0.464,0.309v0.077v0.077c-0.232,0-0.541,0-0.695,0c-0.309,0-0.541,0-0.773,0
		c0,0,0,0,0-0.077c0-0.077,0-0.077,0-0.077c0.464,0,0.464-0.155,0.464-0.309c0-0.927,0-1.623,0-2.086
		c0-0.155-0.077-0.232-0.155-0.232h-0.232v-0.077c0-0.077,0-0.077,0-0.077c0.309,0,0.541-0.077,0.927-0.232
		c0.077,0,0.077,0.077,0.077,0.077c0,0.232,0,0.386,0,0.618C354.605,396.618,355.145,396.386,355.609,396.386"/>
	<path fill="#004990" d="M360.014,398.086c-0.309-0.695-0.618-1.314-0.773-1.391c-0.077,0-0.077,0-0.155,0v-0.077v-0.077
		c0.077,0,0.309,0,0.695,0c0.309,0,0.541,0,0.695,0c0,0,0,0,0,0.077v0.077c-0.232,0-0.309,0.077-0.309,0.232v0.077
		c0.155,0.464,0.618,1.391,0.773,1.855c0.155-0.386,0.695-1.623,0.695-1.932c0-0.155,0-0.232-0.309-0.232v-0.077v-0.077
		c0.077,0,0.309,0,0.464,0c0.309,0,0.541,0,0.618,0c0,0,0,0,0,0.077v0.077c-0.232,0.077-0.309,0.155-0.386,0.309
		c0,0.077-0.155,0.309-0.309,0.618c-0.386,0.773-1.005,2.241-1.468,3.4c-0.232,0.618-0.541,0.85-0.695,0.85
		c-0.155,0-0.232-0.077-0.232-0.309c0-0.309,0.541-0.464,0.773-0.85c0.232-0.309,0.386-0.927,0.541-1.159
		C360.632,399.4,360.323,398.782,360.014,398.086"/>
	<path fill="#004990" d="M363.336,398.009c0,0.927,0.386,1.391,1.005,1.391c0.618,0,1.005-0.541,1.005-1.391
		c0-0.85-0.386-1.391-1.005-1.391C363.723,396.541,363.336,397.082,363.336,398.009 M365.964,398.009
		c0,0.927-0.773,1.623-1.623,1.623c-0.927,0-1.623-0.695-1.623-1.623c0-0.927,0.773-1.623,1.623-1.623
		S365.964,397.082,365.964,398.009"/>
	<path fill="#004990" d="M369.441,398.936c0,0.155,0.077,0.232,0.155,0.232h0.309c0,0,0.077,0,0.077,0.077s0,0.077-0.077,0.077
		c-0.386,0.077-0.541,0.155-0.773,0.232c-0.077,0-0.077-0.077-0.077-0.077c-0.077-0.155-0.077-0.309-0.077-0.541
		c-0.155,0.386-0.618,0.695-1.082,0.695c-0.618,0-0.927-0.232-0.927-0.85c0-0.541,0-1.236,0-1.545c0-0.464,0-0.464-0.464-0.541
		v-0.077v-0.077c0.386,0,0.695,0,1.005,0c0,0.773,0,1.855,0,2.241s0.232,0.618,0.541,0.618c0.541,0,0.927-0.464,0.927-0.927
		c0-0.618,0-1.314,0-1.468c0-0.232-0.155-0.232-0.464-0.232v-0.077v-0.077c0.386,0,0.927-0.077,1.005-0.077
		c0.077,0,0.077,0,0.077,0.077C369.441,397.159,369.441,398.009,369.441,398.936"/>
	<path fill="#004990" d="M372.377,396.386c0.386,0,0.464,0.155,0.464,0.386c0,0.155-0.077,0.309-0.232,0.309
		c-0.077,0-0.155,0-0.155-0.155c-0.077-0.077-0.155-0.155-0.309-0.155c-0.232,0-0.541,0.232-0.541,0.927c0,0.386,0,1.236,0,1.391
		c0,0.232,0.155,0.309,0.541,0.309v0.077v0.077c-0.309,0-0.541,0-0.773,0c-0.309,0-0.618,0-0.773,0c0,0,0,0,0-0.077s0-0.077,0-0.077
		c0.386,0,0.464-0.155,0.464-0.309c0-0.155,0-1.005,0-2.086c0-0.155-0.077-0.232-0.155-0.232H370.6v-0.077c0-0.077,0-0.077,0-0.077
		c0.309,0,0.541-0.077,0.927-0.232c0.077,0,0.077,0.077,0.077,0.077c0,0.232,0,0.386,0,0.618
		C371.682,396.541,372.145,396.386,372.377,396.386"/>
	<path fill="#004990" d="M374.85,394.532l-0.077-0.077c0-0.077,0-0.077,0.077-0.077c0.618,0,0.927-0.077,1.005-0.077
		c0.077,0,0.077,0,0.077,0.077s-0.077,1.545-0.077,4.714c0,0.232,0.077,0.309,0.464,0.309v0.077v0.077c-0.232,0-0.464,0-0.773,0
		c-0.232,0-0.541,0-0.773,0c0,0,0,0,0-0.077V399.4c0.464,0,0.464-0.155,0.464-0.309c0-0.927,0-3.709,0-4.173
		C375.314,394.609,375.236,394.532,374.85,394.532"/>
	<path fill="#004990" d="M378.095,394.764c0,0.232-0.155,0.386-0.386,0.386s-0.386-0.155-0.386-0.386s0.155-0.386,0.386-0.386
		C377.941,394.377,378.095,394.609,378.095,394.764 M378.482,399.477L378.482,399.477c-0.232,0.077-0.464,0-0.773,0
		c-0.232,0-0.541,0-0.695,0c0,0,0,0,0-0.077v-0.077c0.386,0,0.464-0.077,0.464-0.309v-2.086c0-0.155,0-0.232-0.155-0.232h-0.232
		l-0.077-0.077c0-0.077,0-0.077,0.077-0.077c0.309,0,0.618-0.077,0.85-0.232c0.077,0,0.155,0.077,0.155,0.077
		c0,0.232-0.077,1.777-0.077,2.55c0,0.232,0,0.309,0.464,0.309C378.482,399.4,378.482,399.4,378.482,399.477"/>
	<path fill="#004990" d="M379.1,396.773l-0.077-0.077c0-0.077,0-0.077,0.077-0.077c0.309,0,0.386,0,0.386-0.232v-0.773
		c0-0.85,0.541-1.159,1.236-1.159c0.464,0,0.85,0.155,0.85,0.464c0,0.155-0.155,0.232-0.309,0.232c-0.077,0-0.155-0.077-0.232-0.232
		c-0.077-0.155-0.155-0.309-0.464-0.309c-0.541,0-0.618,0.464-0.618,1.005c0,0.464,0,0.695,0,1.005c0.232,0,0.541,0,0.773,0
		l0.077,0.077c0,0.077,0,0.077-0.077,0.077h-0.773c0,0.618,0,1.777,0,2.241c0,0.232,0.077,0.386,0.541,0.386c0,0,0,0,0,0.077v0.077
		c-0.232,0-0.618,0-0.85,0c-0.232,0-0.541,0-0.695,0c0,0,0,0,0-0.077s0-0.077,0-0.077c0.386,0,0.386-0.155,0.386-0.386
		c0-0.927,0-1.777,0-2.241H379.1z"/>
	<path fill="#004990" d="M382.964,397.314c0.232,0,0.309,0,0.309-0.232s-0.155-0.464-0.618-0.464c-0.386,0-0.773,0.309-0.85,0.773
		C382.036,397.314,382.5,397.314,382.964,397.314 M381.805,397.468c0,0.077-0.077,0.232-0.077,0.386
		c0,0.927,0.541,1.391,1.159,1.391c0.309,0,0.618-0.077,0.773-0.309c0,0,0,0,0.077,0s0.155,0.077,0.077,0.155
		c-0.155,0.309-0.464,0.618-1.082,0.618c-0.85,0-1.545-0.464-1.545-1.545c0-0.927,0.618-1.777,1.623-1.777
		c0.773,0,1.082,0.695,1.082,0.927c0,0.155,0,0.155-0.155,0.155C383.273,397.468,382.423,397.468,381.805,397.468"/>
	<path fill="#004990" d="M385.359,399.168c0,0.232-0.155,0.386-0.386,0.386c-0.232,0-0.386-0.155-0.386-0.386
		s0.155-0.386,0.386-0.386C385.205,398.705,385.359,398.936,385.359,399.168"/>
	<path fill="#D9DA55" d="M317.977,412.382c-0.155,0.155-0.309,0.232-0.541,0.232c-0.077,0-0.386,0-0.386-0.232
		c0.077-0.232,0.618-4.636,0.618-5.564c0-0.309-0.155-0.464-0.464-0.541V406.2c0-0.077,0-0.155,0.077-0.155s0.541,0.077,1.159,0.077
		s1.159,0,1.468,0c0,0,0.077,0.077,0.077,0.155s0,0.077-0.077,0.077c-0.541,0-0.695,0.155-0.773,0.464
		c-0.077,0.232-0.155,1.236-0.232,2.086c-0.077,0.85-0.232,1.7-0.309,2.009c0.155-0.155,0.773-1.082,1.391-1.932
		c0.695-1.005,1.314-2.086,1.468-2.473c0.077-0.155,0.309-0.232,0.618-0.232c0.232,0,0.464,0.077,0.464,0.232
		c-0.077,0.695-0.155,1.623-0.309,2.395c-0.077,0.85-0.155,1.7-0.232,2.009c0.155-0.232,0.773-1.082,1.391-1.932
		c0.695-1.005,1.236-1.855,1.236-2.164c0-0.232-0.155-0.309-0.309-0.386c-0.077,0-0.077-0.077-0.077-0.077
		c0-0.077,0-0.155,0.077-0.155c0.155,0,0.541,0.077,1.005,0.077c0.309,0,0.773-0.077,0.85-0.077s0.077,0.077,0.077,0.155
		s0,0.077-0.077,0.077c-0.309,0.077-0.541,0.232-0.927,0.695c-0.232,0.309-3.632,5.255-3.786,5.409
		c-0.155,0.155-0.232,0.155-0.464,0.155c-0.077,0-0.386-0.077-0.386-0.309c0-0.155,0.309-2.627,0.464-4.018
		C319.755,409.832,318.055,412.305,317.977,412.382"/>
	<path fill="#D9DA55" d="M326.709,408.982c0-0.155-0.077-0.232-0.232-0.232c-0.386,0-0.85,0.85-1.159,1.7
		C326.477,409.909,326.709,409.291,326.709,408.982 M325.164,411.455c0,0.386,0.155,0.618,0.464,0.618
		c0.464,0,0.927-0.464,1.159-1.005l0.077-0.077c0.077,0,0.155,0,0.077,0.155c-0.232,0.695-0.85,1.468-1.855,1.468
		c-0.618,0-1.082-0.309-1.082-1.159c0-1.236,1.236-3.091,2.782-3.091c0.464,0,0.618,0.309,0.618,0.695
		c0,0.541-0.541,1.159-2.164,1.545C325.241,410.836,325.164,411.145,325.164,411.455"/>
	<path fill="#D9DA55" d="M329.259,411.841c0-0.232,0.155-0.386,0.386-0.386c0.155,0,0.309,0.077,0.309,0.386
		c0,0.309,0.155,0.464,0.386,0.464c0.309,0,0.386-0.155,0.386-0.541c0-0.541-0.618-1.314-0.618-2.164s0.618-1.236,1.236-1.236
		c0.618,0,0.927,0.232,0.927,0.773c0,0.232-0.155,0.386-0.309,0.386s-0.309-0.077-0.309-0.386c0-0.232-0.077-0.386-0.309-0.386
		s-0.309,0.155-0.309,0.386c0,0.541,0.773,1.468,0.773,2.164c0,0.773-0.541,1.314-1.468,1.314
		C329.723,412.614,329.259,412.305,329.259,411.841"/>
	<path fill="#D9DA55" d="M335.905,409.368c0-0.309-0.077-0.541-0.309-0.541c-0.309,0-0.695,0.386-1.082,1.314
		c-0.077,0.309-0.386,1.082-0.386,1.7c0,0.232,0.077,0.464,0.309,0.464C335.132,412.305,335.905,410.373,335.905,409.368
		 M336.059,408.364c0.695,0,1.005,0.541,1.005,1.159c0,1.236-1.082,3.091-2.473,3.091c-0.386,0-0.618-0.155-0.695-0.386
		c-0.232,1.159-0.541,2.086-0.541,2.395c0,0.155,0.155,0.232,0.464,0.309v0.077c0,0.077,0,0.155,0,0.155c-0.155,0-0.773,0-1.314,0
		c-0.464,0-0.85,0-1.005,0v-0.077c0-0.077,0-0.077,0-0.077c0.464-0.077,0.541-0.155,0.695-0.541c0.077-0.232,1.391-4.868,1.391-5.1
		c-0.232,0.464-0.695,0.618-1.005,1.314l0,0c-0.077,0-0.155-0.077-0.155-0.232c0.232-0.773,1.236-1.236,1.545-2.164
		c0.077-0.309,0.155-0.541,0.155-0.773s0.386-0.386,0.695-0.386c0.155,0,0.386,0.077,0.386,0.232c0,0.386-0.618,2.164-0.695,2.318
		C334.9,408.827,335.441,408.364,336.059,408.364"/>
	<path fill="#D9DA55" d="M340,408.982c0-0.155-0.077-0.232-0.232-0.232c-0.386,0-0.85,0.85-1.159,1.7
		C339.691,409.909,340,409.291,340,408.982 M338.455,411.455c0,0.386,0.155,0.618,0.464,0.618c0.464,0,0.927-0.464,1.159-1.005
		l0.077-0.077c0.077,0,0.155,0,0.077,0.155c-0.232,0.695-0.85,1.468-1.855,1.468c-0.618,0-1.082-0.309-1.082-1.159
		c0-1.236,1.236-3.091,2.782-3.091c0.464,0,0.618,0.309,0.618,0.695c0,0.541-0.541,1.159-2.164,1.545
		C338.532,410.836,338.455,411.145,338.455,411.455"/>
	<path fill="#D9DA55" d="M343.477,408.364c0.541,0,0.773,0.309,0.773,0.695c0,0.232-0.155,0.541-0.386,0.541
		c-0.618,0-0.309-0.773-0.618-0.773c-0.464,0-1.236,1.7-1.236,2.782c0,0.386,0.155,0.541,0.386,0.541
		c0.309,0,0.773-0.232,1.005-0.927c0-0.077,0.077-0.077,0.077-0.077c0.077,0,0.077,0.077,0.077,0.155
		c-0.155,0.773-0.773,1.391-1.545,1.391c-0.618,0-1.159-0.386-1.159-1.236C340.85,410.295,342.009,408.364,343.477,408.364"/>
	<path fill="#D9DA55" d="M346.723,406.586c0,0.386-0.309,0.695-0.695,0.695s-0.695-0.309-0.695-0.695
		c0-0.386,0.309-0.618,0.695-0.618S346.723,406.2,346.723,406.586 M345.255,411.841c0,0.077,0.077,0.155,0.155,0.155
		c0.155,0,0.464-0.232,0.773-0.85c0,0,0,0,0.077,0c0,0,0.155,0.077,0.155,0.155c-0.386,0.927-1.005,1.314-1.468,1.314
		c-0.386,0-0.618-0.232-0.618-0.618c0-0.618,0.85-2.395,0.85-2.782c0-0.077-0.077-0.155-0.155-0.155c-0.077,0-0.155,0-0.232,0.077
		c-0.232,0.232-0.386,0.464-0.386,0.541l0,0c-0.077,0-0.155,0-0.155-0.077c0.232-0.773,0.927-1.159,1.468-1.159
		c0.386,0,0.618,0.232,0.618,0.695C346.182,409.677,345.255,411.377,345.255,411.841"/>
	<path fill="#D9DA55" d="M349.736,409.059c0-0.232,0-0.464-0.309-0.464c-0.464,0-1.7,2.164-1.7,3.091
		c0,0.232,0.077,0.386,0.232,0.386c0.309,0,0.773-0.386,1.159-1.468c0.077-0.232,0.309-0.695,0.386-1.159
		C349.659,409.368,349.736,409.214,349.736,409.059 M347.573,412.536c-0.618,0-0.927-0.464-0.927-1.082
		c0-1.314,1.623-3.168,2.859-3.168c0.232,0,0.464,0.155,0.541,0.464c0.077-0.155,0.077-0.309,0.155-0.386
		c0-0.077,0.309-0.155,0.541-0.155c0.232,0,0.464,0.077,0.464,0.155c0,0.232-1.082,2.705-1.082,3.323
		c0,0.155,0.077,0.155,0.155,0.155c0.232,0,0.618-0.464,0.695-0.927c0,0,0,0,0.077,0c0.077,0,0.155,0.077,0.155,0.155
		c-0.232,0.927-0.927,1.391-1.468,1.391c-0.309,0-0.541-0.155-0.541-0.541c0-0.077,0-0.386,0.077-0.541
		C348.655,412.227,348.114,412.536,347.573,412.536"/>
	<path fill="#D9DA55" d="M352.982,406.432c-0.077-0.077-0.309-0.155-0.386-0.155c-0.077,0-0.077-0.077-0.077-0.077
		c0-0.077,0-0.077,0.077-0.077c0.386-0.077,1.314-0.155,1.623-0.155c0.077,0,0.155,0,0.155,0.077v0.077
		c-0.077,0.155-1.545,4.868-1.545,5.409c0,0.155,0.077,0.309,0.155,0.309c0.155,0,0.541-0.232,0.773-1.005l0,0
		c0.077,0,0.155,0.077,0.155,0.155c-0.309,1.082-1.082,1.545-1.623,1.545c-0.386,0-0.695-0.232-0.695-0.695
		c0-0.077,0-0.232,0.077-0.386C351.977,409.986,352.905,406.973,352.982,406.432"/>
	<path fill="#D9DA55" d="M356.691,406.586c0,0.386-0.309,0.695-0.695,0.695c-0.386,0-0.695-0.309-0.695-0.695
		c0-0.386,0.309-0.618,0.695-0.618C356.382,405.968,356.691,406.2,356.691,406.586 M355.223,411.841
		c0,0.077,0.077,0.155,0.155,0.155c0.155,0,0.464-0.232,0.773-0.85c0,0,0,0,0.077,0c0,0,0.155,0.077,0.155,0.155
		c-0.386,0.927-1.005,1.314-1.468,1.314c-0.386,0-0.618-0.232-0.618-0.618c0-0.618,0.85-2.395,0.85-2.782
		c0-0.077-0.077-0.155-0.155-0.155c-0.077,0-0.155,0-0.232,0.077c-0.232,0.232-0.386,0.464-0.386,0.541l0,0
		c-0.077,0-0.155,0-0.155-0.077c0.232-0.773,0.927-1.159,1.468-1.159c0.386,0,0.618,0.232,0.618,0.695
		C356.227,409.677,355.223,411.377,355.223,411.841"/>
	<path fill="#D9DA55" d="M357.232,411.455c0.541,0,1.159,0.695,1.7,0.695c0.309,0,0.618-0.155,0.618-0.386c0,0,0-0.077,0.077-0.077
		s0.077,0.077,0.077,0.232c0,0.927-0.386,1.391-0.927,1.391c-0.927,0-1.236-1.468-1.855-1.468c-0.232,0-0.309,0.155-0.386,0.386
		c0,0.077-0.077,0.155-0.155,0.155s-0.155-0.077-0.155-0.155c0-1.314,2.318-2.395,2.936-2.859c-0.155,0.077-0.232,0.077-0.464,0.077
		c-0.232,0-0.618-0.077-0.927-0.077c-0.232,0-0.386,0-0.464,0.232c0,0,0,0.077-0.077,0.077c0,0-0.077,0-0.077-0.077
		c0-0.773,0.309-1.236,0.85-1.236c0.618,0,0.85,0.541,1.236,0.541c0.232,0,0.386-0.077,0.386-0.309c0-0.077,0.077-0.155,0.155-0.155
		s0.155,0.077,0.155,0.155c0,1.468-2.55,2.55-3.091,3.091C356.923,411.532,357,411.455,357.232,411.455"/>
	<path fill="#D9DA55" d="M362.486,408.982c0-0.155-0.077-0.232-0.232-0.232c-0.386,0-0.85,0.85-1.159,1.7
		C362.177,409.909,362.486,409.291,362.486,408.982 M360.941,411.455c0,0.386,0.155,0.618,0.464,0.618
		c0.464,0,0.927-0.464,1.159-1.005l0.077-0.077c0.077,0,0.155,0,0.077,0.155c-0.232,0.695-0.85,1.468-1.855,1.468
		c-0.618,0-1.082-0.309-1.082-1.159c0-1.236,1.236-3.091,2.782-3.091c0.464,0,0.618,0.309,0.618,0.695
		c0,0.541-0.541,1.159-2.164,1.545C361.018,410.836,360.941,411.145,360.941,411.455"/>
	<path fill="#D9DA55" d="M368.05,406.586c0,0.386-0.309,0.695-0.695,0.695c-0.386,0-0.695-0.309-0.695-0.695
		c0-0.386,0.309-0.618,0.695-0.618C367.741,405.968,368.05,406.2,368.05,406.586 M366.582,411.841c0,0.077,0.077,0.155,0.155,0.155
		c0.155,0,0.464-0.232,0.773-0.85c0,0,0,0,0.077,0c0,0,0.155,0.077,0.155,0.155c-0.386,0.927-1.005,1.314-1.468,1.314
		c-0.386,0-0.618-0.232-0.618-0.618c0-0.618,0.85-2.395,0.85-2.782c0-0.077-0.077-0.155-0.155-0.155c-0.077,0-0.155,0-0.232,0.077
		c-0.232,0.232-0.386,0.464-0.386,0.541l0,0c-0.077,0-0.155,0-0.155-0.077c0.232-0.773,0.927-1.159,1.468-1.159
		c0.386,0,0.618,0.232,0.618,0.695C367.586,409.677,366.582,411.377,366.582,411.841"/>
	<path fill="#D9DA55" d="M371.605,408.364c0.464,0,0.773,0.309,0.773,0.85s-0.695,1.777-0.695,2.473
		c0,0.077,0.077,0.155,0.155,0.155c0.155,0,0.386-0.232,0.618-0.85c0,0,0-0.077,0.077-0.077c0.077,0,0.077,0,0.077,0.077
		c-0.232,1.005-0.927,1.468-1.468,1.468c-0.386,0-0.618-0.232-0.618-0.541c0-0.695,0.773-2.627,0.773-2.859
		c0-0.155-0.077-0.232-0.232-0.232c-0.309,0-0.85,0.541-1.314,1.623c-0.232,0.464-0.464,1.623-0.541,1.855
		c0,0.077-0.077,0.155-0.155,0.155c-0.309,0-0.85-0.077-0.85-0.309s0.773-2.55,0.773-3.091c0-0.077-0.077-0.232-0.155-0.232
		c-0.077,0-0.077,0-0.155,0.077c-0.309,0.232-0.541,0.773-0.541,0.85c0,0,0,0.077-0.077,0.077s-0.155-0.077-0.155-0.077
		c0-0.464,0.618-1.468,1.468-1.468c0.309,0,0.541,0.232,0.541,0.695c0,0.309-0.155,0.773-0.232,1.005
		C370.368,408.827,371.064,408.364,371.605,408.364"/>
	<path fill="#D9DA55" d="M377.786,409.755c0-0.541-0.309-0.541-0.309-0.927c0-0.309,0.232-0.464,0.464-0.464
		c0.232,0,0.618,0.232,0.618,0.695c0,0.773-0.464,1.777-1.314,3.245c-1.082,1.7-2.55,2.936-3.477,2.936
		c-0.309,0-0.464-0.232-0.464-0.464c0-0.232,0.155-0.464,0.541-0.464c0.85,0,1.468-0.232,2.086-1.082
		c0.077-0.541,0.155-1.159,0.155-1.7c0-1.7-0.232-2.395-0.464-2.395s-0.309,0.464-0.386,0.773c0,0,0,0.077-0.077,0.077
		s-0.155,0-0.155-0.077c0-0.618,0.309-1.623,1.082-1.623c0.695,0,0.927,0.618,0.927,2.241c0,0.464-0.077,1.314-0.155,1.623
		C377.323,411.609,377.786,410.295,377.786,409.755"/>
	<path fill="#D9DA55" d="M379.795,411.764c0,0.309,0.077,0.541,0.232,0.541c0.541,0,1.468-2.164,1.468-3.168
		c0-0.309-0.077-0.541-0.309-0.541C380.645,408.673,379.795,410.759,379.795,411.764 M382.5,409.755
		c0,1.236-0.927,2.859-2.473,2.859c-0.85,0-1.236-0.618-1.236-1.314c0-1.236,1.082-2.936,2.55-2.936
		C382.114,408.364,382.5,408.982,382.5,409.755"/>
	<path fill="#D9DA55" d="M383.968,412.536c-0.464,0-0.773-0.232-0.773-0.773c0-0.618,0.85-2.241,0.85-2.627
		c0-0.155,0-0.232-0.155-0.232c-0.232,0-0.618,0.386-0.773,0.927l-0.077,0.077c-0.077,0-0.077,0-0.077-0.077
		c0.232-0.85,0.927-1.391,1.623-1.391c0.309,0,0.618,0.232,0.618,0.618c0,0.773-0.85,2.318-0.85,2.627
		c0,0.232,0.077,0.309,0.309,0.309c0.309,0,0.773-0.309,1.159-1.159c0.155-0.464,0.618-1.7,0.618-2.164
		c0-0.077,0.077-0.155,0.309-0.155c0.464,0,0.773,0.077,0.773,0.232c0,0.309-0.85,2.55-0.85,3.014c0,0.155,0.077,0.232,0.155,0.232
		c0.232,0,0.618-0.464,0.695-0.85c0,0,0-0.077,0.077-0.077s0.077,0,0.077,0.077c-0.155,0.695-0.618,1.468-1.545,1.468
		c-0.309,0-0.541-0.232-0.541-0.618c0-0.155,0.077-0.464,0.077-0.695C385.282,412.15,384.509,412.536,383.968,412.536"/>
	<path fill="#D9DA55" d="M389.377,411.841c0,0.386-0.309,0.695-0.695,0.695c-0.386,0-0.695-0.309-0.695-0.695
		c0-0.386,0.309-0.695,0.695-0.695C389.068,411.068,389.377,411.455,389.377,411.841"/>
	<path fill="#D9DA55" d="M387.059,415.55c-3.555,0-7.264-1.623-9.273-1.623c-1.314,0-2.318,0.618-3.245,1.314
		c-0.155,0.155-0.309-0.077-0.155-0.232c0.85-0.773,2.009-1.391,3.632-1.391c3.4,0,5.023,1.159,9.273,1.159
		c1.314,0,4.405-0.077,7.109-0.927c0.155-0.077,0.309,0.232,0.077,0.309C391.618,415.009,389.3,415.55,387.059,415.55"/>
</g>
</svg>
